<svg xmlns="http://www.w3.org/2000/svg" xmlns:xlink="http://www.w3.org/1999/xlink" width="581.524" height="405.997" viewBox="0 0 581.524 405.997">
  <defs>
    <linearGradient id="linear-gradient" x1="0.5" y1="1.019" x2="0.5" y2="0.027" gradientUnits="objectBoundingBox">
      <stop offset="0" stop-color="#fff"/>
      <stop offset="1" stop-color="#bee1f4"/>
    </linearGradient>
    <linearGradient id="linear-gradient-2" x1="0.5" y1="1" x2="0.5" y2="0" xlink:href="#linear-gradient"/>
    <linearGradient id="linear-gradient-5" x1="0.5" y1="1" x2="0.5" y2="0.023" xlink:href="#linear-gradient"/>
    <linearGradient id="linear-gradient-12" x1="-0.138" y1="0.132" x2="1.071" y2="0.882" gradientUnits="objectBoundingBox">
      <stop offset="0" stop-color="#bee1f4"/>
      <stop offset="1" stop-color="#25bcaf"/>
    </linearGradient>
    <linearGradient id="linear-gradient-13" x1="-0.167" y1="0.125" x2="1.265" y2="0.886" gradientUnits="objectBoundingBox">
      <stop offset="0.312" stop-color="#56548c"/>
      <stop offset="0.938" stop-color="#3b367a"/>
    </linearGradient>
    <linearGradient id="linear-gradient-18" x1="0.202" y1="0.233" x2="0.928" y2="0.912" xlink:href="#linear-gradient-12"/>
    <linearGradient id="linear-gradient-19" x1="-0.621" y1="0.154" x2="1.574" y2="0.932" xlink:href="#linear-gradient-12"/>
    <linearGradient id="linear-gradient-20" x1="-0.891" y1="0.139" x2="1.526" y2="0.942" xlink:href="#linear-gradient-12"/>
    <linearGradient id="linear-gradient-21" x1="-0.437" y1="0.108" x2="0.951" y2="1.011" xlink:href="#linear-gradient-12"/>
    <linearGradient id="linear-gradient-22" x1="0.106" y1="0.214" x2="0.997" y2="0.87" xlink:href="#linear-gradient-12"/>
    <linearGradient id="linear-gradient-23" x1="0.202" y1="0.233" x2="0.928" y2="0.912" xlink:href="#linear-gradient-12"/>
    <linearGradient id="linear-gradient-24" x1="-0.62" y1="0.154" x2="1.573" y2="0.932" xlink:href="#linear-gradient-12"/>
    <linearGradient id="linear-gradient-25" x1="-0.891" y1="0.139" x2="1.526" y2="0.942" xlink:href="#linear-gradient-12"/>
    <linearGradient id="linear-gradient-32" x1="0.106" y1="0.214" x2="0.997" y2="0.87" xlink:href="#linear-gradient-12"/>
    <linearGradient id="linear-gradient-33" y1="0.5" x2="1" y2="0.5" gradientUnits="objectBoundingBox">
      <stop offset="0" stop-color="#606bf1"/>
      <stop offset="0.266" stop-color="#5a62f1"/>
      <stop offset="0.698" stop-color="#4c49f1"/>
      <stop offset="1" stop-color="#4035f1"/>
    </linearGradient>
    <linearGradient id="linear-gradient-34" x1="0.25" y1="0.067" x2="0.75" y2="0.933" xlink:href="#linear-gradient-13"/>
    <linearGradient id="linear-gradient-35" x1="0.192" y1="-0.069" x2="1.022" y2="0.823" xlink:href="#linear-gradient-13"/>
    <linearGradient id="linear-gradient-36" x1="0.192" y1="0.158" x2="0.747" y2="1.118" xlink:href="#linear-gradient-13"/>
    <linearGradient id="linear-gradient-37" x1="0.177" y1="-0.165" x2="0.577" y2="0.951" xlink:href="#linear-gradient-13"/>
    <linearGradient id="linear-gradient-38" x1="0.478" y1="0.254" x2="0.798" y2="0.808" xlink:href="#linear-gradient-13"/>
    <linearGradient id="linear-gradient-39" x1="-0.021" y1="0.177" x2="0.808" y2="1.069" xlink:href="#linear-gradient-13"/>
    <linearGradient id="linear-gradient-40" x1="0.253" y1="-0.118" x2="0.808" y2="0.842" xlink:href="#linear-gradient-13"/>
    <linearGradient id="linear-gradient-41" x1="0.423" y1="0.049" x2="0.823" y2="1.164" xlink:href="#linear-gradient-13"/>
    <linearGradient id="linear-gradient-42" x1="0.202" y1="0.192" x2="0.522" y2="0.746" xlink:href="#linear-gradient-13"/>
    <linearGradient id="linear-gradient-45" x1="0.192" y1="-0.069" x2="1.022" y2="0.823" xlink:href="#linear-gradient-13"/>
    <linearGradient id="linear-gradient-46" x1="0.192" y1="0.158" x2="0.747" y2="1.118" xlink:href="#linear-gradient-13"/>
    <linearGradient id="linear-gradient-47" x1="0.177" y1="-0.165" x2="0.577" y2="0.951" xlink:href="#linear-gradient-13"/>
    <linearGradient id="linear-gradient-50" x1="0.253" y1="-0.118" x2="0.808" y2="0.842" xlink:href="#linear-gradient-13"/>
    <linearGradient id="linear-gradient-51" x1="0.423" y1="0.049" x2="0.823" y2="1.164" xlink:href="#linear-gradient-13"/>
    <linearGradient id="linear-gradient-52" x1="0.202" y1="0.192" x2="0.522" y2="0.746" xlink:href="#linear-gradient-13"/>
    <linearGradient id="linear-gradient-53" x1="0.25" y1="0.067" x2="0.75" y2="0.933" xlink:href="#linear-gradient-13"/>
    <linearGradient id="linear-gradient-54" x1="-0.576" y1="0.096" x2="1.484" y2="0.869" xlink:href="#linear-gradient-13"/>
    <linearGradient id="linear-gradient-55" x1="-0.797" y1="0.079" x2="1.912" y2="0.887" xlink:href="#linear-gradient-13"/>
    <linearGradient id="linear-gradient-56" x1="-0.39" y1="0.084" x2="0.898" y2="0.919" xlink:href="#linear-gradient-33"/>
    <linearGradient id="linear-gradient-57" x1="0.188" y1="0.168" x2="0.879" y2="0.896" xlink:href="#linear-gradient-33"/>
    <linearGradient id="linear-gradient-58" x1="-0.087" y1="0.078" x2="1.022" y2="0.988" xlink:href="#linear-gradient-33"/>
    <linearGradient id="linear-gradient-59" x1="0" y1="0.5" x2="1" y2="0.5" xlink:href="#linear-gradient-33"/>
    <linearGradient id="linear-gradient-60" x1="0.35" y1="-0.835" x2="0.65" y2="2.002" xlink:href="#linear-gradient-13"/>
    <linearGradient id="linear-gradient-62" x1="-0.013" y1="0.004" x2="1.013" y2="0.996" xlink:href="#linear-gradient-33"/>
    <clipPath id="clip-path">
      <path id="Path_1851" data-name="Path 1851" d="M572.052,147.647V308.941h98.326V147.647Z" transform="translate(-572.052 -147.647)" fill="none"/>
    </clipPath>
    <linearGradient id="linear-gradient-63" x1="0.213" y1="0.055" x2="0.94" y2="0.841" gradientUnits="objectBoundingBox">
      <stop offset="0" stop-color="#ff697d"/>
      <stop offset="1" stop-color="#de2276"/>
    </linearGradient>
    <linearGradient id="linear-gradient-64" x1="0.366" y1="-0.222" x2="0.669" y2="1.649" xlink:href="#linear-gradient-13"/>
    <linearGradient id="linear-gradient-65" x1="0.347" y1="-0.13" x2="0.657" y2="0.97" xlink:href="#linear-gradient-13"/>
    <linearGradient id="linear-gradient-67" x1="-0.001" y1="0.089" x2="0.997" y2="1.001" xlink:href="#linear-gradient-63"/>
    <linearGradient id="linear-gradient-68" x1="0.5" y1="0.015" x2="0.5" y2="0.91" gradientUnits="objectBoundingBox">
      <stop offset="0" stop-color="#4b4b4b"/>
      <stop offset="1"/>
    </linearGradient>
  </defs>
  <g id="_2811593" data-name="2811593" transform="translate(-292.729 -122.797)">
    <g id="Group_1099" data-name="Group 1099" transform="translate(292.729 122.797)">
      <path id="Path_1732" data-name="Path 1732" d="M317.284,328.051v-6.411h12.844V281.8h30.131V205.455h22.5v107.28H398.2V255.571h35.342v70.471H447.3V201.156h8.124v11.672h13.759v32.886h4.151v58.8h32.742V255.727h13.893V245h31.112v46.276h21.044V280.85h35.518V208.717h33.733v85.37h38.794v-46.8h4.062V190.729h26.035v78.082h.751v46.8h16.3V245.145h32.048V255.5H769.2v46.8h18.3V195.028h9.815v29.539h16.841v46.8H840.29v83.674H317.284Z" transform="translate(-283.247 -96.564)" fill="url(#linear-gradient)"/>
      <g id="Group_1016" data-name="Group 1016" transform="translate(346.106 191.975)">
        <g id="Group_1006" data-name="Group 1006" transform="translate(141.798 3.847)">
          <g id="Group_939" data-name="Group 939" transform="translate(3.567 9.892)">
            <rect id="Rectangle_121" data-name="Rectangle 121" width="80.419" height="154.323" fill="url(#linear-gradient-2)"/>
          </g>
          <g id="Group_940" data-name="Group 940">
            <rect id="Rectangle_122" data-name="Rectangle 122" width="87.552" height="9.892" fill="url(#linear-gradient-2)"/>
          </g>
          <g id="Group_941" data-name="Group 941" transform="translate(0 82.107)">
            <rect id="Rectangle_123" data-name="Rectangle 123" width="87.552" height="9.892" fill="url(#linear-gradient-2)"/>
          </g>
          <g id="Group_957" data-name="Group 957" transform="translate(18.312 22.927)">
            <g id="Group_946" data-name="Group 946">
              <g id="Group_942" data-name="Group 942" transform="translate(0.629 0.63)">
                <rect id="Rectangle_124" data-name="Rectangle 124" width="12.197" height="18.176" fill="#fff"/>
              </g>
              <g id="Group_943" data-name="Group 943">
                <path id="Path_1733" data-name="Path 1733" d="M671.381,300.041H657.924V280.607h13.457Zm-12.2-1.259h10.938V281.866H659.183Z" transform="translate(-657.924 -280.607)" fill="#bee1f4"/>
              </g>
              <g id="Group_944" data-name="Group 944" transform="translate(6.097 0.63)">
                <rect id="Rectangle_125" data-name="Rectangle 125" width="1.259" height="18.175" fill="#bee1f4"/>
              </g>
              <g id="Group_945" data-name="Group 945" transform="translate(0.629 9.088)">
                <rect id="Rectangle_126" data-name="Rectangle 126" width="12.198" height="1.259" fill="#bee1f4"/>
              </g>
            </g>
            <g id="Group_951" data-name="Group 951" transform="translate(18.735)">
              <g id="Group_947" data-name="Group 947" transform="translate(0.631 0.63)">
                <rect id="Rectangle_127" data-name="Rectangle 127" width="12.197" height="18.176" fill="#fff"/>
              </g>
              <g id="Group_948" data-name="Group 948">
                <path id="Path_1734" data-name="Path 1734" d="M684.9,300.041H671.44V280.607H684.9Zm-12.2-1.259h10.939V281.866H672.7Z" transform="translate(-671.44 -280.607)" fill="#bee1f4"/>
              </g>
              <g id="Group_949" data-name="Group 949" transform="translate(6.1 0.63)">
                <rect id="Rectangle_128" data-name="Rectangle 128" width="1.259" height="18.175" fill="#bee1f4"/>
              </g>
              <g id="Group_950" data-name="Group 950" transform="translate(0.63 9.088)">
                <rect id="Rectangle_129" data-name="Rectangle 129" width="12.198" height="1.259" fill="#bee1f4"/>
              </g>
            </g>
            <g id="Group_956" data-name="Group 956" transform="translate(37.473)">
              <g id="Group_952" data-name="Group 952" transform="translate(0.629 0.63)">
                <rect id="Rectangle_130" data-name="Rectangle 130" width="12.197" height="18.176" fill="#fff"/>
              </g>
              <g id="Group_953" data-name="Group 953">
                <path id="Path_1735" data-name="Path 1735" d="M698.413,300.041H684.958V280.607h13.455Zm-12.2-1.259h10.937V281.866H686.218Z" transform="translate(-684.958 -280.607)" fill="#bee1f4"/>
              </g>
              <g id="Group_954" data-name="Group 954" transform="translate(6.098 0.63)">
                <rect id="Rectangle_131" data-name="Rectangle 131" width="1.259" height="18.175" fill="#bee1f4"/>
              </g>
              <g id="Group_955" data-name="Group 955" transform="translate(0.63 9.088)">
                <rect id="Rectangle_132" data-name="Rectangle 132" width="12.196" height="1.259" fill="#bee1f4"/>
              </g>
            </g>
          </g>
          <g id="Group_973" data-name="Group 973" transform="translate(18.312 50.061)">
            <g id="Group_962" data-name="Group 962">
              <g id="Group_958" data-name="Group 958" transform="translate(0.629 0.629)">
                <rect id="Rectangle_133" data-name="Rectangle 133" width="12.197" height="18.176" fill="#fff"/>
              </g>
              <g id="Group_959" data-name="Group 959">
                <path id="Path_1736" data-name="Path 1736" d="M671.381,319.616H657.924V300.182h13.457Zm-12.2-1.259h10.938V301.441H659.183Z" transform="translate(-657.924 -300.182)" fill="#bee1f4"/>
              </g>
              <g id="Group_960" data-name="Group 960" transform="translate(6.097 0.63)">
                <rect id="Rectangle_134" data-name="Rectangle 134" width="1.259" height="18.175" fill="#bee1f4"/>
              </g>
              <g id="Group_961" data-name="Group 961" transform="translate(0.629 9.088)">
                <rect id="Rectangle_135" data-name="Rectangle 135" width="12.198" height="1.259" fill="#bee1f4"/>
              </g>
            </g>
            <g id="Group_967" data-name="Group 967" transform="translate(18.735)">
              <g id="Group_963" data-name="Group 963" transform="translate(0.631 0.629)">
                <rect id="Rectangle_136" data-name="Rectangle 136" width="12.197" height="18.176" fill="#fff"/>
              </g>
              <g id="Group_964" data-name="Group 964">
                <path id="Path_1737" data-name="Path 1737" d="M684.9,319.616H671.44V300.182H684.9Zm-12.2-1.259h10.939V301.441H672.7Z" transform="translate(-671.44 -300.182)" fill="#bee1f4"/>
              </g>
              <g id="Group_965" data-name="Group 965" transform="translate(6.1 0.63)">
                <rect id="Rectangle_137" data-name="Rectangle 137" width="1.259" height="18.175" fill="#bee1f4"/>
              </g>
              <g id="Group_966" data-name="Group 966" transform="translate(0.63 9.088)">
                <rect id="Rectangle_138" data-name="Rectangle 138" width="12.198" height="1.259" fill="#bee1f4"/>
              </g>
            </g>
            <g id="Group_972" data-name="Group 972" transform="translate(37.473)">
              <g id="Group_968" data-name="Group 968" transform="translate(0.629 0.629)">
                <rect id="Rectangle_139" data-name="Rectangle 139" width="12.197" height="18.176" fill="#fff"/>
              </g>
              <g id="Group_969" data-name="Group 969">
                <path id="Path_1738" data-name="Path 1738" d="M698.413,319.616H684.958V300.182h13.455Zm-12.2-1.259h10.937V301.441H686.218Z" transform="translate(-684.958 -300.182)" fill="#bee1f4"/>
              </g>
              <g id="Group_970" data-name="Group 970" transform="translate(6.098 0.63)">
                <rect id="Rectangle_140" data-name="Rectangle 140" width="1.259" height="18.175" fill="#bee1f4"/>
              </g>
              <g id="Group_971" data-name="Group 971" transform="translate(0.63 9.088)">
                <rect id="Rectangle_141" data-name="Rectangle 141" width="12.196" height="1.259" fill="#bee1f4"/>
              </g>
            </g>
          </g>
          <g id="Group_989" data-name="Group 989" transform="translate(18.312 102.858)">
            <g id="Group_978" data-name="Group 978">
              <g id="Group_974" data-name="Group 974" transform="translate(0.629 0.629)">
                <rect id="Rectangle_142" data-name="Rectangle 142" width="12.197" height="18.176" fill="#fff"/>
              </g>
              <g id="Group_975" data-name="Group 975">
                <path id="Path_1739" data-name="Path 1739" d="M671.381,357.7H657.924V338.271h13.457Zm-12.2-1.259h10.938V339.53H659.183Z" transform="translate(-657.924 -338.271)" fill="#bee1f4"/>
              </g>
              <g id="Group_976" data-name="Group 976" transform="translate(6.097 0.629)">
                <rect id="Rectangle_143" data-name="Rectangle 143" width="1.259" height="18.175" fill="#bee1f4"/>
              </g>
              <g id="Group_977" data-name="Group 977" transform="translate(0.629 9.087)">
                <rect id="Rectangle_144" data-name="Rectangle 144" width="12.198" height="1.259" fill="#bee1f4"/>
              </g>
            </g>
            <g id="Group_983" data-name="Group 983" transform="translate(18.735)">
              <g id="Group_979" data-name="Group 979" transform="translate(0.631 0.629)">
                <rect id="Rectangle_145" data-name="Rectangle 145" width="12.197" height="18.176" fill="#fff"/>
              </g>
              <g id="Group_980" data-name="Group 980">
                <path id="Path_1740" data-name="Path 1740" d="M684.9,357.7H671.44V338.271H684.9Zm-12.2-1.259h10.939V339.53H672.7Z" transform="translate(-671.44 -338.271)" fill="#bee1f4"/>
              </g>
              <g id="Group_981" data-name="Group 981" transform="translate(6.1 0.629)">
                <rect id="Rectangle_146" data-name="Rectangle 146" width="1.259" height="18.175" fill="#bee1f4"/>
              </g>
              <g id="Group_982" data-name="Group 982" transform="translate(0.63 9.087)">
                <rect id="Rectangle_147" data-name="Rectangle 147" width="12.198" height="1.259" fill="#bee1f4"/>
              </g>
            </g>
            <g id="Group_988" data-name="Group 988" transform="translate(37.473)">
              <g id="Group_984" data-name="Group 984" transform="translate(0.629 0.629)">
                <rect id="Rectangle_148" data-name="Rectangle 148" width="12.197" height="18.176" fill="#fff"/>
              </g>
              <g id="Group_985" data-name="Group 985">
                <path id="Path_1741" data-name="Path 1741" d="M698.413,357.7H684.958V338.271h13.455Zm-12.2-1.259h10.937V339.53H686.218Z" transform="translate(-684.958 -338.271)" fill="#bee1f4"/>
              </g>
              <g id="Group_986" data-name="Group 986" transform="translate(6.098 0.629)">
                <rect id="Rectangle_149" data-name="Rectangle 149" width="1.259" height="18.175" fill="#bee1f4"/>
              </g>
              <g id="Group_987" data-name="Group 987" transform="translate(0.63 9.087)">
                <rect id="Rectangle_150" data-name="Rectangle 150" width="12.196" height="1.259" fill="#bee1f4"/>
              </g>
            </g>
          </g>
          <g id="Group_1005" data-name="Group 1005" transform="translate(18.312 129.991)">
            <g id="Group_994" data-name="Group 994">
              <g id="Group_990" data-name="Group 990" transform="translate(0.629 0.629)">
                <rect id="Rectangle_151" data-name="Rectangle 151" width="12.197" height="18.176" fill="#fff"/>
              </g>
              <g id="Group_991" data-name="Group 991">
                <path id="Path_1742" data-name="Path 1742" d="M671.381,377.28H657.924V357.845h13.457Zm-12.2-1.259h10.938V359.105H659.183Z" transform="translate(-657.924 -357.845)" fill="#bee1f4"/>
              </g>
              <g id="Group_992" data-name="Group 992" transform="translate(6.097 0.63)">
                <rect id="Rectangle_152" data-name="Rectangle 152" width="1.259" height="18.175" fill="#bee1f4"/>
              </g>
              <g id="Group_993" data-name="Group 993" transform="translate(0.629 9.087)">
                <rect id="Rectangle_153" data-name="Rectangle 153" width="12.198" height="1.259" fill="#bee1f4"/>
              </g>
            </g>
            <g id="Group_999" data-name="Group 999" transform="translate(18.735)">
              <g id="Group_995" data-name="Group 995" transform="translate(0.631 0.629)">
                <rect id="Rectangle_154" data-name="Rectangle 154" width="12.197" height="18.176" fill="#fff"/>
              </g>
              <g id="Group_996" data-name="Group 996">
                <path id="Path_1743" data-name="Path 1743" d="M684.9,377.28H671.44V357.845H684.9Zm-12.2-1.259h10.939V359.105H672.7Z" transform="translate(-671.44 -357.845)" fill="#bee1f4"/>
              </g>
              <g id="Group_997" data-name="Group 997" transform="translate(6.1 0.63)">
                <rect id="Rectangle_155" data-name="Rectangle 155" width="1.259" height="18.175" fill="#bee1f4"/>
              </g>
              <g id="Group_998" data-name="Group 998" transform="translate(0.63 9.087)">
                <rect id="Rectangle_156" data-name="Rectangle 156" width="12.198" height="1.259" fill="#bee1f4"/>
              </g>
            </g>
            <g id="Group_1004" data-name="Group 1004" transform="translate(37.473)">
              <g id="Group_1000" data-name="Group 1000" transform="translate(0.629 0.629)">
                <rect id="Rectangle_157" data-name="Rectangle 157" width="12.197" height="18.176" fill="#fff"/>
              </g>
              <g id="Group_1001" data-name="Group 1001">
                <path id="Path_1744" data-name="Path 1744" d="M698.413,377.28H684.958V357.845h13.455Zm-12.2-1.259h10.937V359.105H686.218Z" transform="translate(-684.958 -357.845)" fill="#bee1f4"/>
              </g>
              <g id="Group_1002" data-name="Group 1002" transform="translate(6.098 0.63)">
                <rect id="Rectangle_158" data-name="Rectangle 158" width="1.259" height="18.175" fill="#bee1f4"/>
              </g>
              <g id="Group_1003" data-name="Group 1003" transform="translate(0.63 9.087)">
                <rect id="Rectangle_159" data-name="Rectangle 159" width="12.196" height="1.259" fill="#bee1f4"/>
              </g>
            </g>
          </g>
        </g>
        <g id="Group_1007" data-name="Group 1007" transform="translate(0 44.949)">
          <path id="Path_1745" data-name="Path 1745" d="M596.266,416.831h-34.64V293.719l34.64,16.163Z" transform="translate(-535 -293.719)" fill="url(#linear-gradient-5)"/>
          <rect id="Rectangle_160" data-name="Rectangle 160" width="26.626" height="64.355" transform="translate(0 58.756)" fill="url(#linear-gradient-5)"/>
          <rect id="Rectangle_161" data-name="Rectangle 161" width="9.723" height="51.01" transform="translate(61.266 72.101)" fill="url(#linear-gradient-5)"/>
          <rect id="Rectangle_162" data-name="Rectangle 162" width="19.852" height="89.561" transform="translate(117.323 33.551)" fill="url(#linear-gradient-5)"/>
        </g>
        <g id="Group_1015" data-name="Group 1015" transform="translate(70.989)">
          <rect id="Rectangle_163" data-name="Rectangle 163" width="57.208" height="141.287" transform="translate(0 26.774)" fill="url(#linear-gradient-5)"/>
          <rect id="Rectangle_164" data-name="Rectangle 164" width="19.513" height="6.527" transform="translate(8.426 20.247)" fill="url(#linear-gradient-5)"/>
          <rect id="Rectangle_165" data-name="Rectangle 165" width="1.888" height="20.247" transform="translate(13.776)" fill="url(#linear-gradient-5)"/>
          <g id="Group_1014" data-name="Group 1014" transform="translate(6.993 34.62)">
            <g id="Group_1008" data-name="Group 1008">
              <rect id="Rectangle_166" data-name="Rectangle 166" width="7.763" height="13.062" transform="translate(35.459)" fill="#fff"/>
              <rect id="Rectangle_167" data-name="Rectangle 167" width="7.763" height="13.062" fill="#fff"/>
              <rect id="Rectangle_168" data-name="Rectangle 168" width="7.763" height="13.062" transform="translate(23.639)" fill="#fff"/>
              <rect id="Rectangle_169" data-name="Rectangle 169" width="7.763" height="13.062" transform="translate(11.82)" fill="#fff"/>
            </g>
            <g id="Group_1009" data-name="Group 1009" transform="translate(0 37.349)">
              <rect id="Rectangle_170" data-name="Rectangle 170" width="7.763" height="13.062" transform="translate(35.459)" fill="#fff"/>
              <rect id="Rectangle_171" data-name="Rectangle 171" width="7.763" height="13.062" fill="#fff"/>
              <rect id="Rectangle_172" data-name="Rectangle 172" width="7.763" height="13.062" transform="translate(23.639)" fill="#fff"/>
              <rect id="Rectangle_173" data-name="Rectangle 173" width="7.763" height="13.062" transform="translate(11.82)" fill="#fff"/>
            </g>
            <g id="Group_1010" data-name="Group 1010" transform="translate(0 18.675)">
              <rect id="Rectangle_174" data-name="Rectangle 174" width="7.763" height="13.062" transform="translate(35.459)" fill="#fff"/>
              <rect id="Rectangle_175" data-name="Rectangle 175" width="7.763" height="13.062" fill="#fff"/>
              <rect id="Rectangle_176" data-name="Rectangle 176" width="7.763" height="13.062" transform="translate(23.639)" fill="#fff"/>
              <rect id="Rectangle_177" data-name="Rectangle 177" width="7.763" height="13.062" transform="translate(11.82)" fill="#fff"/>
            </g>
            <g id="Group_1011" data-name="Group 1011" transform="translate(0 56.024)">
              <rect id="Rectangle_178" data-name="Rectangle 178" width="7.763" height="13.062" transform="translate(35.459)" fill="#fff"/>
              <rect id="Rectangle_179" data-name="Rectangle 179" width="7.763" height="13.062" fill="#fff"/>
              <rect id="Rectangle_180" data-name="Rectangle 180" width="7.763" height="13.062" transform="translate(23.639)" fill="#fff"/>
              <rect id="Rectangle_181" data-name="Rectangle 181" width="7.763" height="13.062" transform="translate(11.82)" fill="#fff"/>
            </g>
            <g id="Group_1012" data-name="Group 1012" transform="translate(0 93.373)">
              <rect id="Rectangle_182" data-name="Rectangle 182" width="7.763" height="13.062" transform="translate(35.459)" fill="#fff"/>
              <rect id="Rectangle_183" data-name="Rectangle 183" width="7.763" height="13.062" fill="#fff"/>
              <rect id="Rectangle_184" data-name="Rectangle 184" width="7.763" height="13.062" transform="translate(23.639)" fill="#fff"/>
              <rect id="Rectangle_185" data-name="Rectangle 185" width="7.763" height="13.062" transform="translate(11.82)" fill="#fff"/>
            </g>
            <g id="Group_1013" data-name="Group 1013" transform="translate(0 74.699)">
              <rect id="Rectangle_186" data-name="Rectangle 186" width="7.763" height="13.062" transform="translate(35.459)" fill="#fff"/>
              <rect id="Rectangle_187" data-name="Rectangle 187" width="7.763" height="13.062" fill="#fff"/>
              <rect id="Rectangle_188" data-name="Rectangle 188" width="7.763" height="13.062" transform="translate(23.639)" fill="#fff"/>
              <rect id="Rectangle_189" data-name="Rectangle 189" width="7.763" height="13.062" transform="translate(11.82)" fill="#fff"/>
            </g>
          </g>
        </g>
      </g>
      <g id="Group_1017" data-name="Group 1017" transform="translate(0 359.19)">
        <path id="Path_1746" data-name="Path 1746" d="M652.268,419.028H342.828a10.338,10.338,0,0,1-10.309-10.309h0a10.338,10.338,0,0,1,10.309-10.307H652.268a10.337,10.337,0,0,1,10.307,10.307h0A10.338,10.338,0,0,1,652.268,419.028Z" transform="translate(-277.364 -375.557)" fill="#cadbe5"/>
        <path id="Path_1747" data-name="Path 1747" d="M863.63,409.785H303.351a10.654,10.654,0,0,1-10.622-10.623h0a10.653,10.653,0,0,1,10.622-10.622H863.63a10.654,10.654,0,0,1,10.623,10.622h0A10.655,10.655,0,0,1,863.63,409.785Z" transform="translate(-292.729 -379.37)" fill="#cadbe5"/>
        <path id="Path_1748" data-name="Path 1748" d="M697.74,418.627H576.061a5.283,5.283,0,0,1-5.269-5.269h0a5.284,5.284,0,0,1,5.269-5.269H697.74a5.285,5.285,0,0,1,5.269,5.269h0A5.284,5.284,0,0,1,697.74,418.627Z" transform="translate(-185.354 -371.82)" fill="#cadbe5"/>
        <path id="Path_1749" data-name="Path 1749" d="M747.137,394H316.549a6.055,6.055,0,0,1-6.038-6.037h0a6.055,6.055,0,0,1,6.038-6.038H747.137a6.055,6.055,0,0,1,6.037,6.038h0A6.055,6.055,0,0,1,747.137,394Z" transform="translate(-285.862 -381.924)" fill="#cadbe5"/>
        <rect id="Rectangle_190" data-name="Rectangle 190" width="94.332" height="19.185" rx="5.955" transform="translate(381.585 27.622)" fill="#cadbe5"/>
      </g>
      <path id="Path_1750" data-name="Path 1750" d="M820.888,404H332.757a5.556,5.556,0,0,1-5.54-5.54h0a5.556,5.556,0,0,1,5.54-5.54H820.888a5.557,5.557,0,0,1,5.54,5.54h0A5.556,5.556,0,0,1,820.888,404Z" transform="translate(-279.411 -18.49)" fill="#afc7d3"/>
      <path id="Path_1751" data-name="Path 1751" d="M618.649,413.111H373.582a7.813,7.813,0,0,1-7.792-7.79h0a7.813,7.813,0,0,1,7.792-7.79H618.649a7.813,7.813,0,0,1,7.79,7.79h0A7.813,7.813,0,0,1,618.649,413.111Z" transform="translate(-264.516 -16.708)" fill="#afc7d3"/>
      <g id="Group_1018" data-name="Group 1018" transform="translate(67.949 125.884)">
        <path id="Path_1752" data-name="Path 1752" d="M378.526,213.612s-36.777,64.484-36.777,121.18,36.777,84.139,36.777,84.139S415.3,391.49,415.3,334.792,378.526,213.612,378.526,213.612Z" transform="translate(-341.749 -213.612)" fill="url(#linear-gradient-12)"/>
        <path id="Path_1753" data-name="Path 1753" d="M393.331,338.144l-15.816,14.268L375.8,291.967h-1.964l-1.712,35.193L351.344,308l20.783,22.541v98.2h5.388v-73.06Z" transform="translate(-338.044 -183.355)" fill="url(#linear-gradient-13)"/>
      </g>
      <g id="Group_1019" data-name="Group 1019" transform="translate(165.299 125.884)">
        <path id="Path_1754" data-name="Path 1754" d="M448.756,213.612s-36.777,64.484-36.777,121.18,36.777,84.139,36.777,84.139,36.777-27.442,36.777-84.139S448.756,213.612,448.756,213.612Z" transform="translate(-411.979 -213.612)" fill="url(#linear-gradient-12)"/>
        <path id="Path_1755" data-name="Path 1755" d="M463.562,338.144l-15.816,14.268-1.712-60.445h-1.964l-1.712,35.193L421.574,308l20.783,22.541v98.2h5.388v-73.06Z" transform="translate(-408.274 -183.355)" fill="url(#linear-gradient-13)"/>
      </g>
      <g id="Group_1020" data-name="Group 1020" transform="translate(9.099 182.884)">
        <path id="Path_1756" data-name="Path 1756" d="M326.355,254.733s-27.062,47.449-27.062,89.17,27.062,61.912,27.062,61.912,27.063-20.192,27.063-61.912S326.355,254.733,326.355,254.733Z" transform="translate(-299.293 -254.733)" fill="url(#linear-gradient-12)"/>
        <path id="Path_1757" data-name="Path 1757" d="M337.25,346.369l-11.638,10.5-1.26-44.478h-1.445l-1.26,25.9-15.293-14.1,15.293,16.587V413.03h3.965V359.27Z" transform="translate(-296.567 -232.469)" fill="url(#linear-gradient-13)"/>
      </g>
      <g id="Group_1026" data-name="Group 1026" transform="translate(458.37 284.309)">
        <g id="Group_1021" data-name="Group 1021" transform="translate(43.33 44.78)">
          <path id="Path_1758" data-name="Path 1758" d="M676.786,360.239q3.217,1.11-7.323,42.278H661.87c3.848-10.587,7.458-21.265,10.9-32,.186-.585-.164-.689-.376-.13q-6.094,15.929-11.516,32.127h-6.213Q673.389,359.072,676.786,360.239Z" transform="translate(-654.666 -360.209)" fill="url(#linear-gradient-18)"/>
          <path id="Path_1759" data-name="Path 1759" d="M670.664,367.657c.212-.559.561-.455.376.13-3.443,10.732-7.053,21.409-10.9,32h-.991Q664.556,383.6,670.664,367.657Z" transform="translate(-652.935 -357.475)" fill="#00acb3"/>
        </g>
        <g id="Group_1022" data-name="Group 1022" transform="translate(20.67 0)">
          <path id="Path_1760" data-name="Path 1760" d="M656.153,414.992h-8.084l.069-3.009.141-5.292q.324-10.581.65-21.167.661-21.173,1.325-42.352c.035-1.126-.333-1.108-.4-.018q-1.277,21.135-1.992,42.329-.351,10.592-.5,21.187l-.049,5.3,0,3.025h-8.989C644.124,350.43,648,327.8,650.631,327.9S655.356,350.708,656.153,414.992Z" transform="translate(-638.319 -327.904)" fill="url(#linear-gradient-19)"/>
          <path id="Path_1761" data-name="Path 1761" d="M647.352,339.134c.067-1.09.434-1.108.4.018q-.663,21.175-1.325,42.352-.326,10.587-.65,21.167l-.141,5.292-.069,3.009H644.8l0-3.025.049-5.3q.15-10.6.5-21.187Q646.061,360.278,647.352,339.134Z" transform="translate(-635.815 -323.884)" fill="#00acb3"/>
        </g>
        <g id="Group_1023" data-name="Group 1023" transform="translate(12.124 27.296)">
          <path id="Path_1762" data-name="Path 1762" d="M643.615,407.388h-4.663c-.186-15.465-.828-30.936-1.756-46.389-.039-.657-.4-.622-.4.015q.206,23.192,1.579,46.374h-6.225c.577-35.844,2.566-59.738,4.247-59.792Q639.068,347.513,643.615,407.388Z" transform="translate(-632.153 -347.596)" fill="url(#linear-gradient-20)"/>
          <path id="Path_1763" data-name="Path 1763" d="M637.658,403.787h-.574q-1.393-23.15-1.579-46.374c-.007-.638.358-.672.4-.015C636.83,372.851,637.472,388.322,637.658,403.787Z" transform="translate(-630.859 -343.995)" fill="#00acb3"/>
        </g>
        <g id="Group_1024" data-name="Group 1024" transform="translate(0 47.22)">
          <path id="Path_1764" data-name="Path 1764" d="M638.376,401.837h-4.5c-2.122-10.313-4.6-20.555-7.3-30.739-.126-.481-.478-.383-.388.09q2.986,15.417,6.9,30.649h-6.306q-5.161-39.3-2.418-39.86Q627.185,361.4,638.376,401.837Z" transform="translate(-623.407 -361.969)" fill="url(#linear-gradient-21)"/>
          <path id="Path_1765" data-name="Path 1765" d="M633.1,399.382h-.79q-3.922-15.21-6.9-30.649c-.09-.473.262-.571.388-.09C628.506,378.827,630.98,389.069,633.1,399.382Z" transform="translate(-622.637 -359.514)" fill="#00acb3"/>
        </g>
        <g id="Group_1025" data-name="Group 1025" transform="translate(32.609 22.211)">
          <path id="Path_1766" data-name="Path 1766" d="M674.1,343.941q2.9.919-14.232,64.864H652.99q8.93-25.807,17.077-51.9c.273-.866-.082-.956-.377-.126Q660.5,382.634,652.1,408.8h-5.166Q671.12,343,674.1,343.941Z" transform="translate(-646.932 -343.927)" fill="url(#linear-gradient-22)"/>
          <path id="Path_1767" data-name="Path 1767" d="M668.251,353.357c.3-.83.65-.74.377.126q-8.194,26.065-17.077,51.9h-.891Q659.034,379.237,668.251,353.357Z" transform="translate(-645.493 -340.508)" fill="#00acb3"/>
        </g>
      </g>
      <g id="Group_1032" data-name="Group 1032" transform="translate(383.258 284.309)">
        <g id="Group_1027" data-name="Group 1027" transform="translate(43.33 44.78)">
          <path id="Path_1768" data-name="Path 1768" d="M622.6,360.239q3.219,1.11-7.322,42.278h-7.593c3.848-10.587,7.458-21.265,10.9-32,.186-.585-.164-.689-.376-.13q-6.094,15.929-11.516,32.127h-6.213Q619.2,359.072,622.6,360.239Z" transform="translate(-600.479 -360.209)" fill="url(#linear-gradient-23)"/>
          <path id="Path_1769" data-name="Path 1769" d="M616.477,367.657c.212-.559.561-.455.376.13-3.443,10.732-7.053,21.409-10.9,32h-.991Q610.369,383.6,616.477,367.657Z" transform="translate(-598.748 -357.475)" fill="#00acb3"/>
        </g>
        <g id="Group_1028" data-name="Group 1028" transform="translate(20.669 0)">
          <path id="Path_1770" data-name="Path 1770" d="M601.967,414.992h-8.084l.069-3.009.141-5.292q.324-10.581.65-21.167.661-21.173,1.325-42.352c.035-1.126-.333-1.108-.4-.018q-1.277,21.135-1.992,42.329-.351,10.592-.5,21.187l-.049,5.3,0,3.025h-8.991c5.807-64.561,9.685-87.19,12.313-87.088S601.169,350.708,601.967,414.992Z" transform="translate(-584.131 -327.904)" fill="url(#linear-gradient-24)"/>
          <path id="Path_1771" data-name="Path 1771" d="M593.165,339.134c.067-1.09.434-1.108.4.018q-.663,21.175-1.325,42.352-.326,10.587-.65,21.167l-.141,5.292-.069,3.009h-.761l0-3.025.049-5.3q.15-10.6.5-21.187Q591.874,360.278,593.165,339.134Z" transform="translate(-581.626 -323.884)" fill="#00acb3"/>
        </g>
        <g id="Group_1029" data-name="Group 1029" transform="translate(12.124 27.296)">
          <path id="Path_1772" data-name="Path 1772" d="M589.428,407.388h-4.663c-.186-15.465-.828-30.936-1.756-46.389-.039-.657-.4-.622-.4.015q.206,23.192,1.579,46.374h-6.225c.577-35.844,2.566-59.738,4.247-59.792Q584.881,347.513,589.428,407.388Z" transform="translate(-577.966 -347.596)" fill="url(#linear-gradient-25)"/>
          <path id="Path_1773" data-name="Path 1773" d="M583.471,403.787H582.9q-1.4-23.15-1.579-46.374c-.007-.638.358-.672.4-.015C582.643,372.851,583.285,388.322,583.471,403.787Z" transform="translate(-576.672 -343.995)" fill="#00acb3"/>
        </g>
        <g id="Group_1030" data-name="Group 1030" transform="translate(0 47.22)">
          <path id="Path_1774" data-name="Path 1774" d="M584.189,401.837h-4.5c-2.122-10.313-4.6-20.555-7.3-30.739-.126-.481-.478-.383-.388.09q2.986,15.417,6.9,30.649H572.59q-5.161-39.3-2.418-39.86Q573,361.4,584.189,401.837Z" transform="translate(-569.22 -361.969)" fill="url(#linear-gradient-21)"/>
          <path id="Path_1775" data-name="Path 1775" d="M578.915,399.382h-.79q-3.921-15.21-6.9-30.649c-.09-.473.262-.571.388-.09C574.317,378.827,576.793,389.069,578.915,399.382Z" transform="translate(-568.45 -359.514)" fill="#00acb3"/>
        </g>
        <g id="Group_1031" data-name="Group 1031" transform="translate(32.609 22.211)">
          <path id="Path_1776" data-name="Path 1776" d="M619.912,343.941q2.9.919-14.232,64.864H598.8q8.93-25.807,17.077-51.9c.273-.866-.082-.956-.377-.126q-9.192,25.857-17.592,52.028h-5.166Q616.933,343,619.912,343.941Z" transform="translate(-592.745 -343.927)" fill="url(#linear-gradient-22)"/>
          <path id="Path_1777" data-name="Path 1777" d="M614.064,353.357c.3-.83.65-.74.377.126q-8.194,26.065-17.077,51.9h-.891Q604.847,379.237,614.064,353.357Z" transform="translate(-591.306 -340.508)" fill="#00acb3"/>
        </g>
      </g>
      <g id="Group_1038" data-name="Group 1038" transform="translate(205.753 284.309)">
        <g id="Group_1033" data-name="Group 1033" transform="translate(43.33 44.78)">
          <path id="Path_1778" data-name="Path 1778" d="M494.542,360.239q3.219,1.11-7.323,42.278h-7.592c3.848-10.587,7.458-21.265,10.9-32,.186-.585-.164-.689-.376-.13q-6.094,15.929-11.516,32.127h-6.213Q491.146,359.072,494.542,360.239Z" transform="translate(-472.423 -360.209)" fill="url(#linear-gradient-23)"/>
          <path id="Path_1779" data-name="Path 1779" d="M488.421,367.657c.212-.559.561-.455.376.13-3.443,10.732-7.053,21.409-10.9,32H476.9Q482.313,383.6,488.421,367.657Z" transform="translate(-470.692 -357.475)" fill="#00acb3"/>
        </g>
        <g id="Group_1034" data-name="Group 1034" transform="translate(20.669 0)">
          <path id="Path_1780" data-name="Path 1780" d="M473.911,414.992h-8.084l.069-3.009.141-5.292q.324-10.581.649-21.167.663-21.173,1.327-42.352c.035-1.126-.333-1.108-.4-.018q-1.277,21.135-1.993,42.329-.349,10.592-.5,21.187l-.049,5.3,0,3.025h-8.991c5.807-64.561,9.685-87.19,12.313-87.088S473.114,350.708,473.911,414.992Z" transform="translate(-456.075 -327.904)" fill="url(#linear-gradient-24)"/>
          <path id="Path_1781" data-name="Path 1781" d="M465.109,339.134c.066-1.09.434-1.108.4.018q-.663,21.175-1.327,42.352-.324,10.587-.649,21.167l-.141,5.292-.069,3.009h-.761l0-3.025.049-5.3q.148-10.6.5-21.187Q463.818,360.278,465.109,339.134Z" transform="translate(-453.571 -323.884)" fill="#00acb3"/>
        </g>
        <g id="Group_1035" data-name="Group 1035" transform="translate(12.124 27.296)">
          <path id="Path_1782" data-name="Path 1782" d="M461.372,407.388h-4.663c-.186-15.465-.828-30.936-1.756-46.389-.039-.657-.4-.622-.4.015q.206,23.192,1.577,46.374H449.91c.577-35.844,2.566-59.738,4.247-59.792Q456.825,347.513,461.372,407.388Z" transform="translate(-449.91 -347.596)" fill="url(#linear-gradient-20)"/>
          <path id="Path_1783" data-name="Path 1783" d="M455.415,403.787h-.575q-1.393-23.15-1.577-46.374c-.007-.638.358-.672.4-.015C454.587,372.851,455.229,388.322,455.415,403.787Z" transform="translate(-448.616 -343.995)" fill="#00acb3"/>
        </g>
        <g id="Group_1036" data-name="Group 1036" transform="translate(0 47.22)">
          <path id="Path_1784" data-name="Path 1784" d="M456.133,401.837h-4.5c-2.122-10.313-4.6-20.555-7.3-30.739-.126-.481-.478-.383-.388.09q2.986,15.417,6.9,30.649h-6.306q-5.161-39.3-2.417-39.86Q444.94,361.4,456.133,401.837Z" transform="translate(-441.164 -361.969)" fill="url(#linear-gradient-21)"/>
          <path id="Path_1785" data-name="Path 1785" d="M450.859,399.382h-.79q-3.921-15.21-6.9-30.649c-.09-.473.262-.571.388-.09C446.261,378.827,448.737,389.069,450.859,399.382Z" transform="translate(-440.394 -359.514)" fill="#00acb3"/>
        </g>
        <g id="Group_1037" data-name="Group 1037" transform="translate(32.608 22.211)">
          <path id="Path_1786" data-name="Path 1786" d="M491.857,343.941q2.9.919-14.232,64.864h-6.879q8.932-25.807,17.079-51.9c.273-.866-.082-.956-.377-.126q-9.192,25.857-17.592,52.028h-5.167Q488.878,343,491.857,343.941Z" transform="translate(-464.688 -343.927)" fill="url(#linear-gradient-32)"/>
          <path id="Path_1787" data-name="Path 1787" d="M486.008,353.357c.3-.83.65-.74.377.126q-8.194,26.065-17.079,51.9h-.89Q476.791,379.237,486.008,353.357Z" transform="translate(-463.248 -340.508)" fill="#00acb3"/>
        </g>
      </g>
      <circle id="Ellipse_31" data-name="Ellipse 31" cx="24.243" cy="24.243" r="24.243" transform="translate(207.196)" fill="#a5b7c6"/>
      <path id="Path_1788" data-name="Path 1788" d="M450.632,158.09a1.638,1.638,0,0,0,1.591,1.246H478.4a1.639,1.639,0,0,0,1.591-1.246l3.869-15.652H446.765Zm24.237-12.863a.854.854,0,0,1,.854-.854h0a.854.854,0,0,1,.854.854v10.966a.853.853,0,0,1-.854.854h0a.853.853,0,0,1-.854-.854Zm-5.206,0a.854.854,0,1,1,1.708,0v10.966a.854.854,0,1,1-1.708,0Zm-5.206,0a.854.854,0,1,1,1.708,0v10.966a.854.854,0,1,1-1.708,0Zm-5.206,0a.854.854,0,0,1,1.708,0v10.966a.854.854,0,0,1-1.708,0Zm-5.206,0a.854.854,0,1,1,1.708,0v10.966a.854.854,0,1,1-1.708,0Zm29.77-7.316h-5.553l-8.03-8.03a1.171,1.171,0,1,0-1.656,1.656l6.372,6.374H455.674l6.373-6.374a1.172,1.172,0,1,0-1.658-1.656l-8.03,8.03h-5.553a1.656,1.656,0,0,0,0,3.313h37.008a1.656,1.656,0,0,0,0-3.313Z" transform="translate(-233.871 -120.194)" fill="#fff"/>
      <g id="Group_1048" data-name="Group 1048" transform="translate(45.305 186.273)">
        <rect id="Rectangle_191" data-name="Rectangle 191" width="12.976" height="26.626" transform="translate(206.362 143.317)" fill="#353568"/>
        <rect id="Rectangle_192" data-name="Rectangle 192" width="224.414" height="15.98" transform="translate(126.632 137.983)" fill="#353568"/>
        <path id="Path_1789" data-name="Path 1789" d="M354.327,291.618l-21.3,48.04a36.469,36.469,0,0,0-3.13,14.783v41.8H438.8V282.565H368.243A15.222,15.222,0,0,0,354.327,291.618Z" transform="translate(-323.682 -247.375)" fill="url(#linear-gradient-33)"/>
        <g id="Group_1039" data-name="Group 1039" transform="translate(11.373 39.695)">
          <path id="Path_1790" data-name="Path 1790" d="M433.551,394.981h-1.386V287.2h-66.62A7.192,7.192,0,0,0,359,291.428l-24,53.185v50.369h-1.386V344.316l24.12-53.46a8.575,8.575,0,0,1,7.807-5.041h68.006Z" transform="translate(-333.618 -285.815)" fill="#4254d3"/>
        </g>
        <rect id="Rectangle_193" data-name="Rectangle 193" width="242.701" height="143.317" transform="translate(120.664)" fill="#a5b7c6"/>
        <rect id="Rectangle_194" data-name="Rectangle 194" width="248.246" height="7.779" transform="translate(115.12)" fill="#8da3b2"/>
        <g id="Group_1040" data-name="Group 1040" transform="translate(127.13 27.411)">
          <rect id="Rectangle_195" data-name="Rectangle 195" width="229.77" height="7.779" fill="#8da3b2"/>
          <rect id="Rectangle_196" data-name="Rectangle 196" width="229.77" height="7.779" transform="translate(0 27.411)" fill="#8da3b2"/>
          <rect id="Rectangle_197" data-name="Rectangle 197" width="229.77" height="7.779" transform="translate(0 54.822)" fill="#8da3b2"/>
          <rect id="Rectangle_198" data-name="Rectangle 198" width="229.77" height="7.779" transform="translate(0 82.233)" fill="#8da3b2"/>
        </g>
        <path id="Path_1791" data-name="Path 1791" d="M426.815,312.73V288.565H364.573a6.911,6.911,0,0,0-6.313,4.107L339.4,335.2h64.941Z" transform="translate(-320.012 -245.058)" fill="#071a2b"/>
        <path id="Path_1792" data-name="Path 1792" d="M370.046,289.8l-18.382,43.229h3.959L373.715,289.8Z" transform="translate(-315.276 -244.583)" fill="#353568"/>
        <path id="Path_1793" data-name="Path 1793" d="M380.671,289.8l-17.85,43.229h11.744L391.9,289.8Z" transform="translate(-310.968 -244.583)" fill="#353568"/>
        <path id="Rectangle_199" data-name="Rectangle 199" d="M0,0H158.78a0,0,0,0,1,0,0V21.082a0,0,0,0,1,0,0H4.246A4.246,4.246,0,0,1,0,16.836V0A0,0,0,0,1,0,0Z" transform="translate(0 148.862)" fill="#353568"/>
        <rect id="Rectangle_200" data-name="Rectangle 200" width="204.586" height="12.649" transform="translate(363.366 165.727) rotate(180)" fill="#353568"/>
        <path id="Rectangle_201" data-name="Rectangle 201" d="M0,0H19.259a0,0,0,0,1,0,0V2.828A1.657,1.657,0,0,1,17.6,4.485H1.657A1.657,1.657,0,0,1,0,2.828V0A0,0,0,0,1,0,0Z" transform="translate(63.096 100.804)" fill="#4254d3"/>
        <path id="Rectangle_202" data-name="Rectangle 202" d="M0,0H19.259a0,0,0,0,1,0,0V2.828A1.657,1.657,0,0,1,17.6,4.485H1.657A1.657,1.657,0,0,1,0,2.828V0A0,0,0,0,1,0,0Z" transform="translate(63.096 99.642)" fill="#7886ef"/>
        <path id="Rectangle_203" data-name="Rectangle 203" d="M0,0H9.76a4,4,0,0,1,4,4V18.114a4,4,0,0,1-4,4H0a0,0,0,0,1,0,0V0A0,0,0,0,1,0,0Z" transform="translate(6.213 117.264)" fill="#c5cbef"/>
        <rect id="Rectangle_204" data-name="Rectangle 204" width="12.976" height="26.626" transform="translate(327.869 143.317)" fill="#353568"/>
        <g id="Group_1043" data-name="Group 1043" transform="translate(41.989 137.983)">
          <g id="Group_1041" data-name="Group 1041">
            <path id="Path_1794" data-name="Path 1794" d="M387.665,356.722a31.961,31.961,0,0,0-31.96,31.961h63.921A31.961,31.961,0,0,0,387.665,356.722Z" transform="translate(-355.705 -356.722)" fill="#353568"/>
          </g>
          <circle id="Ellipse_32" data-name="Ellipse 32" cx="25.827" cy="25.827" r="25.827" transform="translate(6.133 6.133)" fill="url(#linear-gradient-34)"/>
          <circle id="Ellipse_33" data-name="Ellipse 33" cx="16.842" cy="16.842" r="16.842" transform="translate(9.983 22.779) rotate(-22.325)" fill="#878cf0"/>
          <circle id="Ellipse_34" data-name="Ellipse 34" cx="15.048" cy="15.048" r="15.048" transform="translate(16.912 16.913)" fill="#d8e8ef"/>
          <g id="Group_1042" data-name="Group 1042" transform="translate(19.818 19.819)">
            <path id="Path_1795" data-name="Path 1795" d="M380.04,379.38l2.2-8.36H376.8l2.2,8.36A.538.538,0,0,0,380.04,379.38Z" transform="translate(-367.377 -371.02)" fill="url(#linear-gradient-35)"/>
            <path id="Path_1796" data-name="Path 1796" d="M379.383,379.664l-4.355-7.467-3.848,3.848,7.467,4.355A.538.538,0,0,0,379.383,379.664Z" transform="translate(-369.547 -370.565)" fill="url(#linear-gradient-36)"/>
            <path id="Path_1797" data-name="Path 1797" d="M378.363,380.017l-8.361-2.2v5.441l8.361-2.2A.538.538,0,0,0,378.363,380.017Z" transform="translate(-370.002 -368.395)" fill="url(#linear-gradient-37)"/>
            <path id="Path_1798" data-name="Path 1798" d="M378.647,381.464l-7.467,4.355,3.848,3.848,4.355-7.467A.538.538,0,0,0,378.647,381.464Z" transform="translate(-369.547 -367.016)" fill="url(#linear-gradient-38)"/>
            <path id="Path_1799" data-name="Path 1799" d="M379,382.619l-2.2,8.361h5.441l-2.2-8.361A.538.538,0,0,0,379,382.619Z" transform="translate(-367.377 -366.696)" fill="url(#linear-gradient-39)"/>
            <path id="Path_1800" data-name="Path 1800" d="M380.446,382.2l4.357,7.467,3.848-3.848-7.467-4.355A.539.539,0,0,0,380.446,382.2Z" transform="translate(-365.998 -367.016)" fill="url(#linear-gradient-40)"/>
            <path id="Path_1801" data-name="Path 1801" d="M381.6,381.058l8.36,2.2v-5.441l-8.36,2.2A.538.538,0,0,0,381.6,381.058Z" transform="translate(-365.678 -368.395)" fill="url(#linear-gradient-41)"/>
            <path id="Path_1802" data-name="Path 1802" d="M381.184,380.4l7.467-4.355L384.8,372.2l-4.357,7.467A.539.539,0,0,0,381.184,380.4Z" transform="translate(-365.998 -370.565)" fill="url(#linear-gradient-42)"/>
            <circle id="Ellipse_35" data-name="Ellipse 35" cx="1.311" cy="1.311" r="1.311" transform="translate(10.831 10.83)" fill="url(#linear-gradient-34)"/>
          </g>
        </g>
        <g id="Group_1047" data-name="Group 1047" transform="translate(250.235 137.983)">
          <g id="Group_1044" data-name="Group 1044">
            <path id="Path_1803" data-name="Path 1803" d="M537.9,356.722a31.961,31.961,0,0,0-31.961,31.961h63.92A31.959,31.959,0,0,0,537.9,356.722Z" transform="translate(-505.938 -356.722)" fill="#353568"/>
          </g>
          <g id="Group_1046" data-name="Group 1046" transform="translate(6.133 6.133)">
            <circle id="Ellipse_36" data-name="Ellipse 36" cx="25.827" cy="25.827" r="25.827" fill="url(#linear-gradient-34)"/>
            <circle id="Ellipse_37" data-name="Ellipse 37" cx="16.842" cy="16.842" r="16.842" transform="matrix(0.231, -0.973, 0.973, 0.231, 5.551, 38.324)" fill="#878cf0"/>
            <circle id="Ellipse_38" data-name="Ellipse 38" cx="15.048" cy="15.048" r="15.048" transform="translate(10.779 10.779)" fill="#d8e8ef"/>
            <g id="Group_1045" data-name="Group 1045" transform="translate(13.685 13.686)">
              <path id="Path_1804" data-name="Path 1804" d="M530.273,379.38l2.2-8.36h-5.441l2.2,8.36A.538.538,0,0,0,530.273,379.38Z" transform="translate(-517.61 -371.02)" fill="url(#linear-gradient-45)"/>
              <path id="Path_1805" data-name="Path 1805" d="M529.616,379.664,525.26,372.2l-3.846,3.848,7.467,4.355A.538.538,0,0,0,529.616,379.664Z" transform="translate(-519.78 -370.565)" fill="url(#linear-gradient-46)"/>
              <path id="Path_1806" data-name="Path 1806" d="M528.595,380.017l-8.36-2.2v5.441l8.36-2.2A.538.538,0,0,0,528.595,380.017Z" transform="translate(-520.235 -368.395)" fill="url(#linear-gradient-47)"/>
              <path id="Path_1807" data-name="Path 1807" d="M528.88,381.464l-7.467,4.355,3.846,3.848,4.357-7.467A.538.538,0,0,0,528.88,381.464Z" transform="translate(-519.78 -367.016)" fill="url(#linear-gradient-38)"/>
              <path id="Path_1808" data-name="Path 1808" d="M529.232,382.619l-2.2,8.361h5.441l-2.2-8.361A.538.538,0,0,0,529.232,382.619Z" transform="translate(-517.61 -366.696)" fill="url(#linear-gradient-39)"/>
              <path id="Path_1809" data-name="Path 1809" d="M530.679,382.2l4.357,7.467,3.846-3.848-7.467-4.355A.538.538,0,0,0,530.679,382.2Z" transform="translate(-516.231 -367.016)" fill="url(#linear-gradient-50)"/>
              <path id="Path_1810" data-name="Path 1810" d="M531.835,381.058l8.36,2.2v-5.441l-8.36,2.2A.538.538,0,0,0,531.835,381.058Z" transform="translate(-515.911 -368.395)" fill="url(#linear-gradient-51)"/>
              <path id="Path_1811" data-name="Path 1811" d="M531.415,380.4l7.467-4.355-3.846-3.848-4.357,7.467A.538.538,0,0,0,531.415,380.4Z" transform="translate(-516.231 -370.565)" fill="url(#linear-gradient-52)"/>
              <path id="Path_1812" data-name="Path 1812" d="M530.672,380.144a1.312,1.312,0,1,1-1.311-1.311A1.311,1.311,0,0,1,530.672,380.144Z" transform="translate(-517.218 -368.003)" fill="url(#linear-gradient-53)"/>
            </g>
          </g>
        </g>
      </g>
      <g id="Group_1051" data-name="Group 1051" transform="translate(249.317 231.283)">
        <path id="Path_1814" data-name="Path 1814" d="M501.825,339.246c2.375-.613.1-14.738-1.317-20.659s-3.585-10.337-6.483-9.588-2.666,5.661-1.037,11.527S499.451,339.858,501.825,339.246Z" transform="translate(-465.177 -282.209)" fill="#ffc8af"/>
        <path id="Path_1815" data-name="Path 1815" d="M520.738,316.281c-1.433-1.634-13.859,8.469-17.255,11.45s-6.763,6.375-5.155,8.207,5.413-1.06,8.81-4.041S522.173,317.916,520.738,316.281Z" transform="translate(-462.814 -279.434)" fill="#ffc8af"/>
        <path id="Path_1816" data-name="Path 1816" d="M512.118,318.3c-.161-2.564,4.394-2.334,5.945-2.2,2.526.22,5.309,2.347,5.237,3.328s-5.79.146-6,.356,2.534.877,2.37,1.792-3.909.488-5.328-.251S512.219,319.9,512.118,318.3Z" transform="translate(-457.33 -279.465)" fill="#ffc8af"/>
        <path id="Path_1817" data-name="Path 1817" d="M489.355,403.766l-.146,3.048a.788.788,0,0,0,.789.783h8.207a.772.772,0,0,0,.467-1.39,12.205,12.205,0,0,0-4.576-2.294c-.141-.026-1.31-25.741-2.549-25.753C490.422,378.148,489.355,403.766,489.355,403.766Z" transform="translate(-466.175 -255.47)" fill="#ffc8af"/>
        <path id="Path_1818" data-name="Path 1818" d="M476.388,403.587v2.875a2.89,2.89,0,0,0,1.195,1.63c2.067.88,6.035.358,6.193-.358s-.952-2.282-1.838-3.4c0,0-.008,0-.008-.007-.571-.715-1.051-1.245-1.051-1.245s-1.116-24.96-2.288-24.926C477.311,378.2,476.388,403.587,476.388,403.587Z" transform="translate(-471.126 -255.471)" fill="#ffc8af"/>
        <path id="Path_1819" data-name="Path 1819" d="M492.292,379.867c3.434,0,5.28-19.054,5.435-27.2s-1.245-14.585-5.435-14.585-5.59,6.443-5.434,14.585S488.86,379.867,492.292,379.867Z" transform="translate(-467.087 -270.945)" fill="#ffc8af"/>
        <path id="Path_1820" data-name="Path 1820" d="M491.856,410.068c3.044,0,3.88-26.884,3.88-32.929s-.467-12.423-3.88-12.423-3.878,6.379-3.878,12.423S488.813,410.068,491.856,410.068Z" transform="translate(-466.651 -260.662)" fill="#ffc8af"/>
        <path id="Path_1821" data-name="Path 1821" d="M481.043,379.814c3.418.313,7-18.494,7.893-26.588s.092-14.638-4.082-15.02-6.154,5.906-6.742,14.029S477.625,379.5,481.043,379.814Z" transform="translate(-470.566 -270.905)" fill="#ffc8af"/>
        <path id="Path_1822" data-name="Path 1822" d="M478.411,409.909c3.03.279,5.815-26.441,6.367-32.46s.668-12.414-2.731-12.726-4.444,6-5,12.018S475.38,409.632,478.411,409.909Z" transform="translate(-471.127 -260.663)" fill="#ffc8af"/>
        <path id="Path_1823" data-name="Path 1823" d="M478.635,356.564h22.651l.934-36.43-1.687-10.278-10.977-3.374-6.335,1.209a7.432,7.432,0,0,0-6.034,7.561l2.309,25.782Z" transform="translate(-470.819 -283.149)" fill="#ffc8af"/>
        <path id="Path_1824" data-name="Path 1824" d="M473.833,338.091c2.355.751,7.993-12.529,9.966-18.343s2.491-10.748-.385-11.666-5.314,3.4-7.075,9.284S471.477,337.338,473.833,338.091Z" transform="translate(-472.441 -282.579)" fill="#ffc8af"/>
        <path id="Path_1825" data-name="Path 1825" d="M484.4,302.968v7.32s1.547.925,5.166.925c1.952,0,2.391-.925,2.391-.925v-2.706Z" transform="translate(-468.033 -284.506)" fill="#ffc8af"/>
        <path id="Path_1826" data-name="Path 1826" d="M483.788,302.025c.017.265.026.513.043.753,0,.086-.008.172-.008.266-.18,4.344,2.609,9,6.809,9.631,0,0,.035.008.094.017.035,0,.086.01.146.01.9.111,4.149.376,5.338-.933a11.068,11.068,0,0,0,2.634-6.29,24.694,24.694,0,0,0-.351-3.163c0-.607.327-2.508.333-3.334.028-3.877-2.582-7.725-7.219-7.725C484.651,291.256,483.591,297.355,483.788,302.025Z" transform="translate(-468.277 -289.028)" fill="#ffc8af"/>
        <g id="Group_1049" data-name="Group 1049" transform="translate(15.905 12.916)">
          <path id="Path_1827" data-name="Path 1827" d="M485.71,299.106c-.552-.129-1.853-.582-1.615,1.35.413,3.339,2.37,3.13,2.37,3.13-.116-.474-.291-1.142-.435-1.917.531-.319-.15-.73-.175-1.12a.61.61,0,0,1-.029-.237C485.768,299.924,485.739,299.537,485.71,299.106Z" transform="translate(-484.066 -298.967)" fill="#ffc8af"/>
          <path id="Path_1828" data-name="Path 1828" d="M485.7,300.052s-.611-.593-1.074-.356-.133,1.307.231,1.943.771.69.843.514-.743-.55-.455-.851.583-.352.557-.528S485.7,300.052,485.7,300.052Z" transform="translate(-483.938 -298.707)" fill="#eaa183"/>
        </g>
        <path id="Path_1829" data-name="Path 1829" d="M492.8,308.675c-2.106.1-4.913-1.96-5.687-2.9a9.453,9.453,0,0,1-1.178-3.332,1.241,1.241,0,0,1-1.1-.557s.057,1.048.467,1.4.678.432.767.689.57,3.553,2.316,4.479S492.8,308.675,492.8,308.675Z" transform="translate(-467.865 -284.922)" fill="#eaa183"/>
        <path id="Path_1830" data-name="Path 1830" d="M489.209,397.285v2.857a.521.521,0,0,0,.521.521h9.194a.833.833,0,0,0,.5-1.5,34.736,34.736,0,0,0-5.064-2.756c-.376.33-.943,1.354-1.6,1.478A18.49,18.49,0,0,1,489.209,397.285Z" transform="translate(-466.175 -248.424)" fill="#336"/>
        <path id="Path_1831" data-name="Path 1831" d="M476.388,396.776v2.5a2.89,2.89,0,0,0,1.195,1.63c2.067.88,6.035.358,6.193-.358s-.952-2.282-1.838-3.4c0,0-.008,0-.008-.007-.428-.365-2.61-.164-2.975.015a7.611,7.611,0,0,1-1.4.671A7.887,7.887,0,0,1,476.388,396.776Z" transform="translate(-471.126 -248.282)" fill="#336"/>
        <path id="Path_1832" data-name="Path 1832" d="M490.6,345.732v1.752L482.221,414.4h-6.486l2.911-68.663Z" transform="translate(-471.378 -267.992)" fill="url(#linear-gradient-54)"/>
        <path id="Path_1833" data-name="Path 1833" d="M498.271,345.732,495.553,414.4H489.16l-2.7-66.911v-1.752Z" transform="translate(-467.238 -267.992)" fill="url(#linear-gradient-55)"/>
        <path id="Path_1834" data-name="Path 1834" d="M499.247,316.261a82.131,82.131,0,0,1,2.146,9.361s-.922,1.552-4.956,2.289H496.4c.05-4.949.057-8.889-.022-10.262a26.522,26.522,0,0,0-2.137-8.848C496.273,309.545,497.9,311.855,499.247,316.261Z" transform="translate(-464.232 -282.253)" fill="url(#linear-gradient-56)"/>
        <path id="Path_1835" data-name="Path 1835" d="M482.481,307.594c2.918.3,4.441,2.976,3.461,7.117-1.137,4.791-4.978,13.666-4.978,13.666-.242-.043-.48-.093-.708-.143-5.836-1.209-6.658-3.068-6.658-3.068,1.638-7.116,4.412-14.861,6.68-16.528A7.8,7.8,0,0,1,482.481,307.594Z" transform="translate(-472.203 -282.719)" fill="url(#linear-gradient-57)"/>
        <path id="Path_1836" data-name="Path 1836" d="M489.846,308.347" transform="translate(-465.929 -282.429)" fill="#25bcaf"/>
        <path id="Path_1837" data-name="Path 1837" d="M494.625,307.833l6.094,1.673a26.523,26.523,0,0,1,2.137,8.848c.079,1.372.072,5.313.022,10.262-.136,12.7-.55,32.082-.55,32.082H477.469s1.1-14.431,1.293-18.843a87.257,87.257,0,0,0-.786-11.666l.786-1.716c.229.05.466.1.708.143,0,0,3.841-8.876,4.978-13.666.98-4.14-.543-6.816-3.461-7.116a22.166,22.166,0,0,1,4.885-.858s1.059,3.335,5.787,3.386S494.625,307.833,494.625,307.833Z" transform="translate(-470.709 -282.958)" fill="url(#linear-gradient-58)"/>
        <path id="Path_1838" data-name="Path 1838" d="M483.874,307.966c.2.261.7.165,1.067-.069l.593-1.665a6.378,6.378,0,0,1-.6-.9,3.627,3.627,0,0,1-.369-2.667c.3-.693,1.378-.363,1.378-.363s.747,2.14,1.083,2.114.532-3.018.532-3.018a1.368,1.368,0,0,0,1.274-2.1,2.109,2.109,0,0,0,1.2-1.342,3.749,3.749,0,0,0,2.456-.4l1.18-.682s2.244,1.073,2.976.585a3.746,3.746,0,0,1,1.318-.585s.976.682,1.462.341.1-2.047-.847-2.44a4.667,4.667,0,0,0-4.275-3.561s-3.77-1.561-5.593.488c0,0-1.881-.347-2.067.732,0,0-1.781.761-1.712,2.049a2.763,2.763,0,0,0-.873,2.293s-1.024,2.782-.585,3.806c0,0-.951,2.244-.11,3.414l.841,1.171A2.213,2.213,0,0,0,483.874,307.966Z" transform="translate(-468.567 -289.264)" fill="#336"/>
        <path id="Path_1839" data-name="Path 1839" d="M483.134,298.674l16.806-.341s-.23-8.684-8.661-8.684S483.134,298.674,483.134,298.674Z" transform="translate(-468.521 -289.649)" fill="url(#linear-gradient-59)"/>
        <path id="Path_1840" data-name="Path 1840" d="M498.128,296.041s3.1,1.57,3.245,1.769-5.807.41-8.017.118a28.29,28.29,0,0,1-5.529-1.677,32.936,32.936,0,0,1,6.082-.664A13.4,13.4,0,0,1,498.128,296.041Z" transform="translate(-466.709 -287.356)" fill="url(#linear-gradient-60)"/>
        <path id="Path_1841" data-name="Path 1841" d="M477.28,356.149c2.185-.182,1.454-16.314,1.077-20.855s-1.108-9.308-3.558-9.1-2.388,5.023-2.013,9.564S475.094,356.329,477.28,356.149Z" transform="translate(-472.592 -275.541)" fill="#ffc8af"/>
        <path id="Path_1842" data-name="Path 1842" d="M476.362,344.791c-2.591.022-2.032,4.587-1.785,6.136.4,2.526,3.277,4.742,4.258,4.6s-.359-5.79-.162-6.015.62,2.872,1.529,2.641.211-3.967-.635-5.341S477.986,344.777,476.362,344.791Z" transform="translate(-471.913 -268.356)" fill="#ffc8af"/>
        <g id="Group_1050" data-name="Group 1050" transform="translate(14.612 22.149)">
          <path id="Path_1843" data-name="Path 1843" d="M488.083,307.594l2.318,3.617s-3.18-.94-3.992-1.088.292-1.231.292-1.231Z" transform="translate(-481.984 -304.869)" fill="#4e5fd8"/>
          <path id="Path_1844" data-name="Path 1844" d="M484.011,305.628l5.22,2.726L487.4,311.97l-4.271-4.391Z" transform="translate(-483.134 -305.628)" fill="#336"/>
          <path id="Path_1845" data-name="Path 1845" d="M483.767,305.628h.874v.456Z" transform="translate(-482.889 -305.628)" fill="url(#linear-gradient-33)"/>
          <path id="Path_1846" data-name="Path 1846" d="M490.772,307.259l1.259,2.634-1.953-1.145Z" transform="translate(-480.452 -304.998)" fill="#336"/>
          <path id="Path_1847" data-name="Path 1847" d="M489.205,311.45a10.693,10.693,0,0,0,.707-2.017,21.109,21.109,0,0,0,.182-2.459l1.015.4a13.265,13.265,0,0,1-.561,1.948A14.964,14.964,0,0,1,489.205,311.45Z" transform="translate(-480.789 -305.108)" fill="#4e5fd8"/>
          <path id="Path_1848" data-name="Path 1848" d="M491.6,307.634c-.087.243-.232.581-.367.994a8.28,8.28,0,0,1-.6,1.336c-.2.376-.432.774-.667,1.164L489.3,310.1l-.866-1.223c-.252-.356-.491-.64-.645-.844l-.255-.313.171.366c.119.227.27.563.484.947l.726,1.31.852,1.411.213.355.223-.355.037-.057a14.258,14.258,0,0,0,.807-1.54,6.544,6.544,0,0,0,.466-1.454c.093-.431.139-.8.186-1.048s.055-.4.055-.4Z" transform="translate(-481.435 -304.998)" fill="#336"/>
          <rect id="Rectangle_205" data-name="Rectangle 205" width="2.586" height="1.171" transform="translate(14.105 14.489)" fill="#fbd15b"/>
        </g>
      </g>
      <g id="Group_1052" data-name="Group 1052" transform="translate(294.245 287.232)">
        <rect id="Rectangle_206" data-name="Rectangle 206" width="50.098" height="25.37" transform="translate(5.486)" fill="#ffc8af"/>
        <rect id="Rectangle_207" data-name="Rectangle 207" width="70.42" height="35.662" transform="translate(0 60.516)" fill="#ffc8af"/>
        <rect id="Rectangle_208" data-name="Rectangle 208" width="70.42" height="35.662" transform="translate(0 25.112)" fill="#f4b9a2"/>
        <rect id="Rectangle_209" data-name="Rectangle 209" width="70.42" height="35.662" transform="translate(70.42 60.516)" fill="#f4b9a2"/>
        <rect id="Rectangle_210" data-name="Rectangle 210" width="6.802" height="25.187" transform="translate(27.134)" fill="#ffc17a"/>
        <rect id="Rectangle_211" data-name="Rectangle 211" width="9.562" height="35.404" transform="translate(30.429 60.645)" fill="#ffc17a"/>
        <rect id="Rectangle_212" data-name="Rectangle 212" width="9.562" height="35.404" transform="translate(30.429 25.241)" fill="#fcc995"/>
        <rect id="Rectangle_213" data-name="Rectangle 213" width="9.562" height="35.404" transform="translate(100.849 60.645)" fill="#fcc995"/>
      </g>
      <g id="Group_1066" data-name="Group 1066" transform="translate(384.856 10.323)">
        <g id="Group_1059" data-name="Group 1059">
          <rect id="Rectangle_214" data-name="Rectangle 214" width="102.972" height="194.643" rx="8.841" fill="#336"/>
          <rect id="Rectangle_215" data-name="Rectangle 215" width="98.334" height="176.194" transform="translate(2.326 9.226)" fill="url(#linear-gradient-62)"/>
          <g id="Group_1053" data-name="Group 1053" transform="translate(46.115 11.533)">
            <rect id="Rectangle_216" data-name="Rectangle 216" width="10.742" height="2.387" fill="#99a3f2"/>
          </g>
          <g id="Group_1054" data-name="Group 1054" transform="translate(86.099 11.533)">
            <rect id="Rectangle_217" data-name="Rectangle 217" width="10.742" height="2.387" fill="#99a3f2"/>
          </g>
          <g id="Group_1058" data-name="Group 1058" transform="translate(6.13 11.533)">
            <g id="Group_1055" data-name="Group 1055">
              <rect id="Rectangle_218" data-name="Rectangle 218" width="0.836" height="2.387" fill="#99a3f2"/>
            </g>
            <g id="Group_1056" data-name="Group 1056" transform="translate(2.651)">
              <path id="Path_1849" data-name="Path 1849" d="M582.149,140.951h-1.814v-2.387h1.814Zm-3.629,0h-1.813v-2.387h1.813Z" transform="translate(-576.707 -138.564)" fill="#99a3f2"/>
            </g>
            <g id="Group_1057" data-name="Group 1057" transform="translate(9.908)">
              <rect id="Rectangle_219" data-name="Rectangle 219" width="0.834" height="2.387" fill="#99a3f2"/>
            </g>
          </g>
        </g>
        <g id="Group_1065" data-name="Group 1065" transform="translate(2.328 24.124)">
          <g id="Group_1064" data-name="Group 1064" clip-path="url(#clip-path)">
            <g id="Group_1063" data-name="Group 1063" transform="translate(-15.544 -3.767)">
              <g id="Group_1060" data-name="Group 1060" transform="translate(0 1.797)">
                <rect id="Rectangle_220" data-name="Rectangle 220" width="126.725" height="5.28" transform="translate(0 11.294)" fill="#4f61e0"/>
                <rect id="Rectangle_221" data-name="Rectangle 221" width="13.512" height="169.297" transform="translate(85.803 13.934)" fill="#4f61e0"/>
                <rect id="Rectangle_222" data-name="Rectangle 222" width="35.641" height="5.94" transform="translate(53.462 96.107)" fill="#4f61e0"/>
                <rect id="Rectangle_223" data-name="Rectangle 223" width="4.29" height="106.23" transform="translate(66.993 68.056)" fill="#4f61e0"/>
                <rect id="Rectangle_224" data-name="Rectangle 224" width="79.863" height="4.29" transform="translate(53.462 131.088)" fill="#4f61e0"/>
                <rect id="Rectangle_225" data-name="Rectangle 225" width="36.631" height="10.56" transform="translate(95.374 64.096)" fill="#4f61e0"/>
                <rect id="Rectangle_226" data-name="Rectangle 226" width="54.122" height="5.28" transform="translate(34.981 64.096)" fill="#4f61e0"/>
                <rect id="Rectangle_227" data-name="Rectangle 227" width="8.58" height="58.082" transform="translate(47.192 90.827)" fill="#4f61e0"/>
                <rect id="Rectangle_228" data-name="Rectangle 228" width="55.479" height="3.449" transform="translate(0.294 145.46)" fill="#4f61e0"/>
                <rect id="Rectangle_229" data-name="Rectangle 229" width="4.893" height="54.569" transform="translate(30.088 14.807)" fill="#4f61e0"/>
                <rect id="Rectangle_230" data-name="Rectangle 230" width="28.614" height="3.96" transform="translate(33.428 28.667)" fill="#4f61e0"/>
                <rect id="Rectangle_231" data-name="Rectangle 231" width="4.461" height="32.627" transform="translate(57.581)" fill="#4f61e0"/>
                <rect id="Rectangle_232" data-name="Rectangle 232" width="46.484" height="3.747" transform="translate(4.998 105.103)" fill="#4f61e0"/>
              </g>
              <g id="Group_1061" data-name="Group 1061">
                <rect id="Rectangle_233" data-name="Rectangle 233" width="126.725" height="5.28" transform="translate(0 11.294)" fill="#99a3f2"/>
                <rect id="Rectangle_234" data-name="Rectangle 234" width="13.512" height="169.297" transform="translate(85.803 13.934)" fill="#99a3f2"/>
                <rect id="Rectangle_235" data-name="Rectangle 235" width="35.641" height="5.94" transform="translate(53.462 96.107)" fill="#99a3f2"/>
                <rect id="Rectangle_236" data-name="Rectangle 236" width="4.29" height="106.23" transform="translate(66.993 68.056)" fill="#99a3f2"/>
                <rect id="Rectangle_237" data-name="Rectangle 237" width="79.863" height="4.29" transform="translate(53.462 131.089)" fill="#99a3f2"/>
                <rect id="Rectangle_238" data-name="Rectangle 238" width="36.631" height="10.56" transform="translate(95.374 64.096)" fill="#99a3f2"/>
                <rect id="Rectangle_239" data-name="Rectangle 239" width="54.122" height="5.28" transform="translate(34.981 64.096)" fill="#99a3f2"/>
                <rect id="Rectangle_240" data-name="Rectangle 240" width="8.58" height="58.082" transform="translate(47.192 90.827)" fill="#99a3f2"/>
                <rect id="Rectangle_241" data-name="Rectangle 241" width="55.479" height="3.449" transform="translate(0.294 145.46)" fill="#99a3f2"/>
                <rect id="Rectangle_242" data-name="Rectangle 242" width="4.893" height="54.569" transform="translate(30.088 14.807)" fill="#99a3f2"/>
                <rect id="Rectangle_243" data-name="Rectangle 243" width="28.614" height="3.96" transform="translate(33.428 28.667)" fill="#99a3f2"/>
                <rect id="Rectangle_244" data-name="Rectangle 244" width="4.461" height="32.627" transform="translate(57.581)" fill="#99a3f2"/>
                <rect id="Rectangle_245" data-name="Rectangle 245" width="46.484" height="3.747" transform="translate(4.998 105.103)" fill="#99a3f2"/>
              </g>
              <g id="Group_1062" data-name="Group 1062" transform="translate(48.675 34.166)">
                <path id="Path_1850" data-name="Path 1850" d="M609.318,169.578a13.37,13.37,0,0,0-13.365,13.367c0,13.247,13.365,29.431,13.365,29.431s13.365-16.183,13.365-29.431A13.365,13.365,0,0,0,609.318,169.578Zm0,20.435a7.065,7.065,0,1,1,7.068-7.068A7.062,7.062,0,0,1,609.318,190.013Z" transform="translate(-595.953 -169.578)" fill="url(#linear-gradient-63)"/>
              </g>
            </g>
          </g>
        </g>
      </g>
      <path id="Path_1852" data-name="Path 1852" d="M470.088,162.86H458.024a6.983,6.983,0,0,0-6.934-6.38H436.015a8.323,8.323,0,0,0-8.266-7.616h-30.3a8.323,8.323,0,0,0-8.266,7.616h-6.572a6.982,6.982,0,0,0-6.934,6.38h-8.268a7.129,7.129,0,1,0,0,14.258H470.088a7.129,7.129,0,1,0,0-14.258Z" transform="translate(-266.642 -112.731)" fill="#e4eef4"/>
      <path id="Path_1853" data-name="Path 1853" d="M517.21,203.749h-.837c.007-.1.015-.205.015-.31h0a4.7,4.7,0,0,0-4.685-4.685h-3.675c0-.069.011-.137.011-.207a4.908,4.908,0,0,0-4.893-4.893h-.955a4.908,4.908,0,0,0-4.893,4.893c0,.069.008.137.011.207H492.7a4.7,4.7,0,0,0-4.686,4.685h0c0,.105.008.208.015.31h-2.358a4.376,4.376,0,0,0,0,8.752H517.21a4.376,4.376,0,1,0,0-8.752Z" transform="translate(-219.913 -95.435)" fill="#e4eef4"/>
      <g id="Group_1069" data-name="Group 1069" transform="translate(154.08 325.515)">
        <g id="Group_1067" data-name="Group 1067" transform="translate(0 22.233)">
          <rect id="Rectangle_246" data-name="Rectangle 246" width="70.42" height="35.662" transform="translate(70.42 35.662) rotate(180)" fill="#f4b9a2"/>
          <rect id="Rectangle_247" data-name="Rectangle 247" width="9.562" height="35.404" transform="translate(39.991 35.533) rotate(180)" fill="#fcc995"/>
        </g>
        <g id="Group_1068" data-name="Group 1068" transform="translate(26.517 0)">
          <rect id="Rectangle_248" data-name="Rectangle 248" width="43.903" height="22.233" transform="translate(43.903 22.233) rotate(180)" fill="#ffc8af"/>
          <rect id="Rectangle_249" data-name="Rectangle 249" width="5.961" height="22.072" transform="translate(24.932 22.072) rotate(180)" fill="#ffc17a"/>
        </g>
      </g>
      <g id="Group_1076" data-name="Group 1076" transform="translate(347.417 239.01)">
        <path id="Path_1854" data-name="Path 1854" d="M579.621,301.3c.78,6.346,1.586,20.751,1.586,20.751l-16.522.036,1.2-22.533,6.03-3.12Z" transform="translate(-535.129 -294.756)" fill="#404077"/>
        <path id="Path_1855" data-name="Path 1855" d="M562.093,341.768c2.319.394,5.858-12.869,6.94-18.61s.912-10.457-1.92-10.938-4.554,3.913-5.427,9.691S559.773,341.374,562.093,341.768Z" transform="translate(-536.675 -288.674)" fill="#ffc8af"/>
        <path id="Path_1856" data-name="Path 1856" d="M548.422,341.733c.967,1.848,12.31-3.438,15.437-5.073s6.281-3.646,5.2-5.719-4.534-.629-7.661,1.006S547.454,339.884,548.422,341.733Z" transform="translate(-541.433 -281.828)" fill="#ffc8af"/>
        <path id="Path_1857" data-name="Path 1857" d="M566.785,380.724c-3.263.133-5.751-17.912-6.213-25.647s.622-13.914,4.606-14.075,5.563,5.911,5.728,13.656S570.048,380.593,566.785,380.724Z" transform="translate(-536.755 -277.547)" fill="#ffc8af"/>
        <path id="Path_1858" data-name="Path 1858" d="M567.555,409.584c-2.893.116-4.727-25.558-4.96-31.3s-.033-11.829,3.21-11.961,3.934,5.916,4.165,11.662S570.449,409.466,567.555,409.584Z" transform="translate(-535.963 -267.77)" fill="#ffc8af"/>
        <path id="Path_1859" data-name="Path 1859" d="M578.193,380.682c-3.252.3-6.656-17.6-7.51-25.3s-.086-13.928,3.884-14.291,5.856,5.62,6.415,13.347S581.445,380.384,578.193,380.682Z" transform="translate(-532.934 -277.517)" fill="#ffc8af"/>
        <path id="Path_1860" data-name="Path 1860" d="M579.971,409.465c-2.883.265-5.532-25.307-6.057-31.033s-.636-11.811,2.6-12.108,4.229,5.708,4.753,11.434S582.855,409.2,579.971,409.465Z" transform="translate(-531.674 -267.772)" fill="#ffc8af"/>
        <path id="Path_1861" data-name="Path 1861" d="M583.6,358.561H560.649s1.992-10.2,2.1-13.884c.085-3.025,1.288-12.638,1.288-12.638s-2.766-4.168-2.75-6.353c.022-3.3,5.592-12.3,5.592-12.3l8.065-2.478,5.474,1.3c3.427.653,3.529,3.9,3.529,7.391,0,10.532-4.421,17.68-4.014,23.713C580.187,347.19,583.6,358.561,583.6,358.561Z" transform="translate(-536.688 -289.166)" fill="#ffc8af"/>
        <path id="Path_1862" data-name="Path 1862" d="M582.645,341.417c-2.29.542-6.67-12.468-8.119-18.128s-1.58-10.377,1.216-11.039,4.795,3.615,6.035,9.323S584.935,340.875,582.645,341.417Z" transform="translate(-531.719 -288.675)" fill="#ffc8af"/>
        <g id="Group_1074" data-name="Group 1074" transform="translate(27.834)">
          <path id="Path_1863" data-name="Path 1863" d="M574.852,306.034v8.221s-1.472.879-4.915.879c-1.857,0-2.275-.879-2.275-.879V311.68Z" transform="translate(-561.813 -291.049)" fill="#ffc8af"/>
          <g id="Group_1073" data-name="Group 1073" transform="translate(1.029 9.647)">
            <path id="Path_1864" data-name="Path 1864" d="M568.008,302.267c-.712.194-.994,2.567-.866,2.557s.575-1.9,1.2-2.189S568.008,302.267,568.008,302.267Z" transform="translate(-563.055 -302.15)" fill="#f2b49c"/>
            <path id="Path_1865" data-name="Path 1865" d="M565.68,302.267c.482.372.309,2.3.3,2.458s-.319-2.189-.319-2.189Z" transform="translate(-563.616 -302.15)" fill="#f2b49c"/>
            <g id="Group_1070" data-name="Group 1070" transform="translate(0.424 1.241)">
              <path id="Path_1866" data-name="Path 1866" d="M569.461,303.846a.6.6,0,1,1-.6-.6A.6.6,0,0,1,569.461,303.846Z" transform="translate(-563.036 -303.014)" fill="#414042"/>
              <path id="Path_1867" data-name="Path 1867" d="M570.287,303.426a2.41,2.41,0,0,0-2.5,0Z" transform="translate(-563.216 -303.078)" fill="#414042"/>
              <path id="Path_1868" data-name="Path 1868" d="M565.888,303.846a.6.6,0,1,1-.6-.6A.6.6,0,0,1,565.888,303.846Z" transform="translate(-564.416 -303.014)" fill="#414042"/>
              <path id="Path_1869" data-name="Path 1869" d="M566.232,303.426a1.263,1.263,0,0,0-1.741,0Z" transform="translate(-564.491 -303.078)" fill="#414042"/>
            </g>
            <path id="Path_1870" data-name="Path 1870" d="M566.708,306.041c.6,0,1.09-.05,1.09.115s-.488.36-1.09.36-1.09-.2-1.09-.36S566.106,306.041,566.708,306.041Z" transform="translate(-563.632 -300.696)" fill="#e0bd96"/>
            <path id="Path_1871" data-name="Path 1871" d="M566.626,307.818c.441,0,.8-.037.8.083s-.358.4-.8.4-.8-.276-.8-.4S566.186,307.818,566.626,307.818Z" transform="translate(-563.551 -300.009)" fill="#f2b49c"/>
            <g id="Group_1071" data-name="Group 1071" transform="translate(1.169 6.779)">
              <path id="Path_1872" data-name="Path 1872" d="M569.222,307.073a.136.136,0,0,1,.132.1.138.138,0,0,1-.094.171,8.456,8.456,0,0,1-2.049.294,8.931,8.931,0,0,1-2.082-.294.137.137,0,1,1,.073-.265,8.947,8.947,0,0,0,2.009.283,8.4,8.4,0,0,0,1.974-.283A.117.117,0,0,1,569.222,307.073Z" transform="translate(-565.028 -307.073)" fill="#f2b49c"/>
            </g>
            <g id="Group_1072" data-name="Group 1072">
              <path id="Path_1873" data-name="Path 1873" d="M567.766,302.574c-.254-.129.129-.416.628-.389s1.833-.06,2.485.553c0,0-.068.051-.37-.061S567.961,302.672,567.766,302.574Z" transform="translate(-562.834 -302.183)" fill="#845e40"/>
              <path id="Path_1874" data-name="Path 1874" d="M566.3,302.574c.172-.129-.087-.416-.426-.389s-1.243-.06-1.686.553c0,0,.046.051.251-.061S566.163,302.672,566.3,302.574Z" transform="translate(-564.185 -302.183)" fill="#845e40"/>
            </g>
          </g>
          <path id="Path_1875" data-name="Path 1875" d="M576.444,305.721c-.017.254-.025.491-.04.719,0,.082.008.164.008.254.17,4.157-.272,7.374-4.992,9.042-.859.107-3.863.757-5-.495-1.334-1.473-2.387-5.267-2.387-6.594v-.057c.017-1.293.2-1.648.2-2.392,0-.581-.312-2.4-.317-3.188a9.527,9.527,0,0,1,1.065-4.01,6.043,6.043,0,0,1,5.84-3.381C577.474,295.619,576.632,301.254,576.444,305.721Z" transform="translate(-563.26 -295.071)" fill="#ffc8af"/>
          <path id="Path_1876" data-name="Path 1876" d="M572.517,299.531c-2.779,2.4-7.772,2.344-8.3,5.252l.189,1.293s-.706-1.608-.872-2.168c-.362-1.216.4-3.773,1.841-5.608,2.746-3.5,8.544-4.262,10.951-.991,0,0,3.357-.663,3.777,4.459.29,3.533-3.619,15.822-3.619,15.822a4.358,4.358,0,0,1-1.2-2.074c-1.169-4.932-2.318-13.551-2.933-16.926" transform="translate(-563.443 -295.224)" fill="#404077"/>
          <path id="Path_1877" data-name="Path 1877" d="M571.286,300.447v-.032" transform="translate(-560.414 -293.219)" fill="#bd884c"/>
          <path id="Path_1878" data-name="Path 1878" d="M568.258,310.9a8.908,8.908,0,0,0,4.8-2.233,2.95,2.95,0,0,1-1.444,1.845A7.263,7.263,0,0,1,568.258,310.9Z" transform="translate(-561.583 -290.032)" fill="#f2b49c"/>
        </g>
        <path id="Path_1879" data-name="Path 1879" d="M570.378,403.658l.141,2.982a.77.77,0,0,1-.771.767h-8.03c-.731,0-1.727-1.338-1.1-1.715,1.349-.819,3.744-2,5.115-2.628.128-.058,1.291-24.446,2.5-24.459C569.332,378.594,570.378,403.658,570.378,403.658Z" transform="translate(-536.777 -263.026)" fill="#ffc8af"/>
        <path id="Path_1880" data-name="Path 1880" d="M581.533,403.481v2.813a5.472,5.472,0,0,1-1.918,1.612c-2.022.861-5.155.334-5.309-.366s1.964-3.208,1.964-3.214a7.952,7.952,0,0,0,.869-1.334s1.092-24.421,2.24-24.387C580.63,378.647,581.533,403.481,581.533,403.481Z" transform="translate(-531.417 -263.026)" fill="#ffc8af"/>
        <path id="Path_1881" data-name="Path 1881" d="M560.663,400.241h9.868a.231.231,0,0,0,.23-.231v-1.551c-1.981.017-6.516.078-6.782.018a5.042,5.042,0,0,1-1.342-1.317,25.227,25.227,0,0,0-2.5,1.521A.867.867,0,0,0,560.663,400.241Z" transform="translate(-537.02 -255.86)" fill="url(#linear-gradient-64)"/>
        <path id="Path_1882" data-name="Path 1882" d="M579.616,400.6a5.472,5.472,0,0,0,1.919-1.612v-1.279l-1.919,1.149c-1.358-1.44-3.88-1.85-4.505-.593h0a3.423,3.423,0,0,0-.8,1.971C574.461,400.937,577.594,401.463,579.616,400.6Z" transform="translate(-531.419 -255.722)" fill="url(#linear-gradient-65)"/>
        <path id="Path_1883" data-name="Path 1883" d="M584.573,346.3s1.674,17.086,1.781,28.333a153.121,153.121,0,0,1,1.5,15.557c.329,8.1-.8,23.371-.8,23.371h-4.951l-8.377-63.509h-2.216v63.509h-5.736s-3.381-25.532-5.516-67.26Z" transform="translate(-536.836 -275.498)" fill="url(#linear-gradient-33)"/>
        <path id="Path_1884" data-name="Path 1884" d="M559.967,360.358l3.779-28.667a15.146,15.146,0,0,1-2.465-6.775c0-.8,1.106-3.646,2.314-6.358.355-.81-.711-1.443-.711-1.443a9.581,9.581,0,0,1,2.011-3.942c1.1-1.1,5.739-1.076,5.739-1.076-2.679.771-3.316,4.484-2.923,4.771s5.561.205,6.519,0,2.7-4.845,5.219-5.224a5.89,5.89,0,0,1,3.58.944c1.873,1.17,2.627,4.465,2.627,4.465s-6.907-.182-6.473,3.881q.017.15.037.3c.543,4.129,3.434,11.44,3.434,11.44a41.465,41.465,0,0,0-1.169,9.237c-.015,4.854,4.171,18.444,4.171,18.444Z" transform="translate(-536.951 -288.89)" fill="url(#linear-gradient-67)"/>
        <path id="Path_1885" data-name="Path 1885" d="M577.116,358.77c-2.06-.33-.191-15.582.5-19.862s1.729-8.749,4.039-8.378,1.9,4.94,1.211,9.221S579.176,359.1,577.116,358.77Z" transform="translate(-530.692 -281.598)" fill="#ffc8af"/>
        <path id="Path_1886" data-name="Path 1886" d="M578.492,348.06c2.456.209,1.594,4.5,1.247,5.952-.565,2.366-2.977,4.707-3.9,4.5s.678-5.516.509-5.743-1.192,2.28-2.036,2,.089-3.78.99-5.022S576.954,347.928,578.492,348.06Z" transform="translate(-531.539 -274.828)" fill="#ffc8af"/>
        <g id="Group_1075" data-name="Group 1075" transform="translate(0 56.541)">
          <path id="Path_1887" data-name="Path 1887" d="M552.955,338.662c.613,2.388-3.561,2.892-5.026,3.181-1.893.376-4.455-1.957-4.565-2.9s5.292-1.077,5.45-1.313-2.481.241-2.491-.65,2.519-1.217,3.989-.776S552.571,337.165,552.955,338.662Z" transform="translate(-543.363 -336.013)" fill="#ffc8af"/>
        </g>
      </g>
      <g id="Group_1080" data-name="Group 1080" transform="translate(247.233 45.169)">
        <g id="Group_1077" data-name="Group 1077" transform="translate(1.392 1.392)">
          <path id="Path_1888" data-name="Path 1888" d="M473.478,284.168h-1.386V164.011a7.632,7.632,0,0,1,7.624-7.624H601.1v1.386H479.716a6.244,6.244,0,0,0-6.238,6.238Z" transform="translate(-472.092 -156.387)" fill="#a5b7c6"/>
        </g>
        <g id="Group_1078" data-name="Group 1078" transform="translate(128.212)">
          <circle id="Ellipse_39" data-name="Ellipse 39" cx="2.085" cy="2.085" r="2.085" fill="#a5b7c6"/>
        </g>
        <g id="Group_1079" data-name="Group 1079" transform="translate(0 126.985)">
          <circle id="Ellipse_40" data-name="Ellipse 40" cx="2.085" cy="2.085" r="2.085" fill="#a5b7c6"/>
        </g>
      </g>
      <g id="Group_1084" data-name="Group 1084" transform="translate(417.096 146.324)">
        <g id="Group_1081" data-name="Group 1081" transform="translate(1.981 1.392)">
          <path id="Path_1889" data-name="Path 1889" d="M686.482,337.31H595.06v-1.386h91.422a6.244,6.244,0,0,0,6.238-6.238v-92.7a6.244,6.244,0,0,0-6.238-6.238H669.434v-1.386h17.048a7.633,7.633,0,0,1,7.624,7.624v92.7A7.633,7.633,0,0,1,686.482,337.31Z" transform="translate(-595.06 -229.362)" fill="#a5b7c6"/>
        </g>
        <g id="Group_1082" data-name="Group 1082" transform="translate(74.375)">
          <circle id="Ellipse_41" data-name="Ellipse 41" cx="2.085" cy="2.085" r="2.085" fill="#a5b7c6"/>
        </g>
        <g id="Group_1083" data-name="Group 1083" transform="translate(0 106.562)">
          <path id="Path_1890" data-name="Path 1890" d="M595.716,305.234a2.085,2.085,0,1,0,2.083,2.085A2.085,2.085,0,0,0,595.716,305.234Z" transform="translate(-593.631 -305.234)" fill="#a5b7c6"/>
        </g>
      </g>
      <circle id="Ellipse_42" data-name="Ellipse 42" cx="24.243" cy="24.243" r="24.243" transform="translate(518.373 105.927)" fill="#a5b7c6"/>
      <circle id="Ellipse_43" data-name="Ellipse 43" cx="24.243" cy="24.243" r="24.243" transform="translate(518.373 249.668)" fill="#a5b7c6"/>
      <g id="Group_1087" data-name="Group 1087" transform="translate(527.274 264.504)">
        <g id="Group_1085" data-name="Group 1085" transform="translate(0.485)">
          <path id="Path_1891" data-name="Path 1891" d="M703.18,313.616H673.465l14.857,8.708Z" transform="translate(-673.465 -313.616)" fill="#fff"/>
        </g>
        <g id="Group_1086" data-name="Group 1086" transform="translate(0 1.114)">
          <path id="Path_1892" data-name="Path 1892" d="M688.457,323.411l-15.342-8.992v17.7H703.8v-17.7Z" transform="translate(-673.115 -314.419)" fill="#fff"/>
        </g>
      </g>
      <path id="Path_1893" data-name="Path 1893" d="M705.383,219.015c0-6.468-7.423-11.712-16.581-11.712s-16.58,5.244-16.58,11.712,7.423,11.713,16.58,11.713a22.461,22.461,0,0,0,6.853-1.048l5.434,3.686L698.6,228.46C702.715,226.328,705.383,222.893,705.383,219.015Zm-23.917,1.8a2.11,2.11,0,1,1,2.11-2.11A2.11,2.11,0,0,1,681.466,220.811Zm7.336,0a2.11,2.11,0,1,1,2.111-2.11A2.11,2.11,0,0,1,688.8,220.811Zm7.337,0a2.11,2.11,0,1,1,2.111-2.11A2.11,2.11,0,0,1,696.139,220.811Z" transform="translate(-146.187 -90.165)" fill="#fff"/>
      <g id="Group_1088" data-name="Group 1088" transform="translate(355.085 53.376)">
        <rect id="Rectangle_250" data-name="Rectangle 250" width="17.766" height="2.843" transform="translate(0 8.167)" fill="#a5b7c6"/>
        <rect id="Rectangle_251" data-name="Rectangle 251" width="17.766" height="2.843" transform="translate(0 16.334)" fill="#a5b7c6"/>
        <rect id="Rectangle_252" data-name="Rectangle 252" width="17.766" height="2.843" fill="#a5b7c6"/>
      </g>
      <g id="Group_1091" data-name="Group 1091" transform="translate(216.998 76.957)">
        <g id="Group_1089" data-name="Group 1089" transform="translate(1.98 1.391)">
          <rect id="Rectangle_253" data-name="Rectangle 253" width="30.339" height="1.386" fill="#a5b7c6"/>
        </g>
        <g id="Group_1090" data-name="Group 1090">
          <path id="Path_1894" data-name="Path 1894" d="M451.361,178.315a2.084,2.084,0,1,0,2.085,2.085A2.084,2.084,0,0,0,451.361,178.315Z" transform="translate(-449.276 -178.315)" fill="#a5b7c6"/>
        </g>
      </g>
      <circle id="Ellipse_44" data-name="Ellipse 44" cx="14.654" cy="14.654" r="14.654" transform="matrix(0.229, -0.973, 0.973, 0.229, 179.007, 89.955)" fill="#a5b7c6"/>
      <g id="Group_1095" data-name="Group 1095" transform="translate(189.113 68.48)">
        <g id="Group_1092" data-name="Group 1092" transform="translate(2.569)">
          <path id="Path_1895" data-name="Path 1895" d="M440.9,177.144a4.944,4.944,0,1,1-4.944-4.944A4.944,4.944,0,0,1,440.9,177.144Z" transform="translate(-431.012 -172.2)" fill="#fff"/>
        </g>
        <g id="Group_1094" data-name="Group 1094" transform="translate(0 9.893)">
          <g id="Group_1093" data-name="Group 1093">
            <path id="Path_1896" data-name="Path 1896" d="M439.408,179.337a5.623,5.623,0,0,1-5.474,0,7.509,7.509,0,0,0-4.775,6.992v4.236h15.024v-4.236A7.509,7.509,0,0,0,439.408,179.337Z" transform="translate(-429.159 -179.337)" fill="#fff"/>
          </g>
        </g>
      </g>
      <g id="Group_1096" data-name="Group 1096" transform="translate(497.25 50.117)">
        <path id="Path_1897" data-name="Path 1897" d="M663.661,171.157h-12.2V158.952h12.2Zm-10.126-2.079h8.047v-8.047h-8.047Z" transform="translate(-651.456 -158.952)" fill="#a5b7c6"/>
      </g>
      <g id="Group_1097" data-name="Group 1097" transform="translate(525.752 189.486)">
        <path id="Path_1898" data-name="Path 1898" d="M681.151,268.629h-9.133V259.5h9.133Zm-7.577-1.557h6.02v-6.02h-6.02Z" transform="translate(-672.018 -259.496)" fill="#a5b7c6"/>
      </g>
      <path id="Path_1899" data-name="Path 1899" d="M489.064,149.217v-4.5h-2.5v4.5h-4.5v2.5h4.5v4.5h2.5v-4.5h4.5v-2.5Z" transform="translate(-219.615 -114.332)" fill="#a5b7c6"/>
      <path id="Path_1900" data-name="Path 1900" d="M676.691,244.679,673.51,241.5l-1.765,1.766,3.181,3.181-3.181,3.181,1.766,1.766,3.181-3.181,3.182,3.181,1.766-1.766-3.182-3.181,3.181-3.181-1.765-1.766Z" transform="translate(-146.371 -76.96)" fill="#a5b7c6"/>
      <g id="Group_1098" data-name="Group 1098" transform="translate(258.786 120.553)">
        <path id="Path_1901" data-name="Path 1901" d="M479.423,211.5a1.739,1.739,0,1,0,.51-1.23,1.745,1.745,0,0,0-.51,1.23" transform="translate(-479.423 -209.766)" fill="#a5b7c6"/>
        <path id="Path_1902" data-name="Path 1902" d="M479.423,232.305v.01a1.738,1.738,0,0,0,3.477,0v-.01a1.738,1.738,0,0,0-3.477,0Zm0-12.087v.008a1.738,1.738,0,0,0,3.477,0v-.008a1.738,1.738,0,0,0-3.477,0Z" transform="translate(-479.423 -206.401)" fill="#a5b7c6"/>
        <path id="Path_1903" data-name="Path 1903" d="M479.423,237.666a1.739,1.739,0,1,0,.51-1.23,1.745,1.745,0,0,0-.51,1.23" transform="translate(-479.423 -199.663)" fill="#a5b7c6"/>
      </g>
      <path id="Path_1904" data-name="Path 1904" d="M621.973,134.7H599.727a.848.848,0,0,1-.846-.847h0a.847.847,0,0,1,.846-.844h22.246a.848.848,0,0,1,.846.844h0A.849.849,0,0,1,621.973,134.7Z" transform="translate(-174.508 -118.855)" fill="#071a2b"/>
      <path id="Path_1905" data-name="Path 1905" d="M669.124,137.7v11.845l-96.363,96.363V137.7Z" transform="translate(-184.594 -117.043)" fill="url(#linear-gradient-68)" style="mix-blend-mode: screen;isolation: isolate"/>
      <path id="Path_1906" data-name="Path 1906" d="M533.622,206.065a20.528,20.528,0,1,1,20.529-20.528A20.551,20.551,0,0,1,533.622,206.065Zm0-37.379a16.851,16.851,0,1,0,16.851,16.851A16.869,16.869,0,0,0,533.622,168.686Z" transform="translate(-207.634 -106.496)" fill="#a5b7c6"/>
      <path id="Path_1907" data-name="Path 1907" d="M524.543,192.973a1.839,1.839,0,0,1-1.335-3.1l5.7-6.03V170.965a1.839,1.839,0,1,1,3.678,0v13.606a1.842,1.842,0,0,1-.5,1.264l-6.2,6.561A1.834,1.834,0,0,1,524.543,192.973Z" transform="translate(-203.923 -104.907)" fill="#a5b7c6"/>
    </g>
  </g>
</svg>
