<svg xmlns="http://www.w3.org/2000/svg" width="586.191" height="395.554" viewBox="0 0 586.191 395.554">
  <g id="Group_8041" data-name="Group 8041" transform="translate(-129.809 -1892.318)">
    <g id="Group_1157" data-name="Group 1157" transform="translate(129.809 1892.318)" style="isolation: isolate">
      <path id="Path_1257" data-name="Path 1257" d="M596.277,398.186c48.331-54.77,71.7-113.552,35.663-171.572-38.442-61.889-99.947-34.227-149.862-65.668-61.8-38.929-126.9-109.331-215.209-79.642-48.921,16.447-62.284,74.472-64.214,83.732-.383,1.831-.782,3.647-1.246,5.46-3.9,15.176-17.252,56.558-71.336,107.164-32.915,30.8-46.031,88.669-25.267,128.385,0,0,42.689,53.157,116.027,62.389s95.482-33.646,177.324-25.462,70.93,13.64,120.944,0S593.9,400.875,596.277,398.186Z" transform="translate(-63.26 -74.192)" fill="#a8a8a8" opacity="0.094"/>
      <path id="Path_1258" data-name="Path 1258" d="M161.487,106.705c-2.212-10.315-10.785-17.964-21.268-20-13.342-2.59-35.065-1.01-58.553,24.242-38.437,41.321-7.143,65.729,19.816,67.479C124.69,179.935,168.492,139.379,161.487,106.705Z" transform="translate(-63.728 -74.017)" fill="#a8a8a8" opacity="0.163"/>
    </g>
    <g id="_2777160" data-name="2777160" transform="translate(-89.733 1831.412)">
      <g id="OBJECTS" transform="translate(347.979 112.453)">
        <g id="Group_1151" data-name="Group 1151">
          <g id="Group_1156" data-name="Group 1156">
            <g id="Group_1149" data-name="Group 1149">
              <g id="Group_1136" data-name="Group 1136" transform="translate(210.908 36.284)">
                <path id="Path_2050" data-name="Path 2050" d="M564.924,245.517c2.564-6.019,2.107-12.82,2.13-19.362a122.68,122.68,0,0,1,1.977-21.52c1.12-6.16,3.058-16.517,11-16.672a8.859,8.859,0,0,1,7.737,4.434,44.884,44.884,0,0,1,2.036-21.071c1.571-4.5,4.012-8.917,7.959-11.6s9.643-3.176,13.357-.182a9.19,9.19,0,0,1,3.105,9.056,24.555,24.555,0,0,1,20.4-20.119c7.236-.98,16.309,2.881,15.874,11.654-.424,8.542-11.934,19.254-18.1,24.156,4.593-.37,9.743-.567,13.2,2.476,3.817,3.357,3.877,9.592,1.393,14.028s-6.9,7.422-11.307,9.948c-7.511,4.3-15.594,6.122-23.167,10L616,223.026a15.781,15.781,0,0,1,2.906,2.242c3.092,3.261,2.835,8.587.9,12.644-5.439,11.405-20.58,13.586-31.385,16.5a54.133,54.133,0,0,0-24.618,14.5c-3.8,3.92-7.132,8.8-7.252,14.256" transform="translate(-556.551 -148.335)" fill="#00b69d"/>
                <path id="Path_2051" data-name="Path 2051" d="M627.281,171.6a278.378,278.378,0,0,1,19.741-19.77c-.252-.221-.51-.436-.783-.637q-10.173,9.215-19.354,19.36a133.642,133.642,0,0,1-2.816-17.791c-.326.238-.636.494-.951.746a134.7,134.7,0,0,0,2.9,17.8.474.474,0,0,0,.069.148c-6.857,7.617-13.332,15.577-19.477,23.8q-3.581-18.4-6.1-36.971-.488.181-.96.4,2.579,18.924,6.241,37.676c-7.2,9.705-13.945,19.772-20.346,30.065-3.726-12.3-7.405-24.832-9.008-37.583a8.066,8.066,0,0,0-.948.6c1.678,12.916,5.447,25.61,9.222,38.058a.6.6,0,0,0,.03.057q-4.933,7.977-9.6,16.116a.555.555,0,0,0-.187.326c-5.7,9.913-11.135,19.96-16.393,30.034l-.329,1.478a.528.528,0,0,0,.437.139,24.438,24.438,0,0,1,1.327-2.174c5.058-9.665,10.281-19.307,15.746-28.825q13.591,3.163,27.294,5.782.951-.319,1.886-.669-14.385-2.718-28.653-6.029,4.6-7.986,9.442-15.836,17.63,3.214,35.436,5.24c.037-.335.066-.669.077-1q-17.545-2-34.937-5.158c6.3-10.144,12.95-20.068,20.029-29.643a.578.578,0,0,0,.359-.112q19.63,3.037,39.4,4.957c.215-.307.411-.63.608-.953q-19.858-1.917-39.587-4.956,9.158-12.3,19.352-23.728,8.353.789,16.715,1.494.411-.473.809-.953Q635.623,172.373,627.281,171.6Z" transform="translate(-556.532 -148.303)" fill="#1c8191"/>
              </g>
              <g id="Group_1137" data-name="Group 1137" transform="translate(235.731 114.63)">
                <path id="Path_2052" data-name="Path 2052" d="M581.468,349.441c6.948-25.144,13.064-50.865,25.556-73.766S639.6,232.559,665,226.6c5.042-1.182,11.11-1.489,14.606,2.332,2.224,2.43,2.785,5.943,2.816,9.236.144,15.14-8.63,28.858-18.175,40.61a240.686,240.686,0,0,1-36.274,36.035c-8.934,7.159-18.389,13.69-26.853,21.4S585.1,353,581.1,363.723" transform="translate(-581.099 -225.814)" fill="#70d4c6"/>
                <path id="Path_2053" data-name="Path 2053" d="M654.029,247.884a.584.584,0,0,0,.183.007.461.461,0,0,0,.1.04l25.525,4.98c.111-.322.237-.639.342-.962l-25.219-4.919a259.856,259.856,0,0,1,23.578-19.078,8.732,8.732,0,0,0-.874-.6,258.957,258.957,0,0,0-23.044,18.617q-.159-8.039.052-16.073c-.343.14-.687.274-1.026.419q-.211,8.282-.026,16.573a269.555,269.555,0,0,0-22.746,23.579L626.6,249.1c-.286.288-.574.573-.856.865l4.289,21.473A277.144,277.144,0,0,0,610.894,296.9q-3.062-8.735-5.8-17.577c-.221.435-.443.871-.66,1.309q2.7,8.658,5.714,17.218a.548.548,0,0,0,.059.1,279.959,279.959,0,0,0-14.989,25.593q-1.538-5.89-3.077-11.778c-.193.608-.378,1.219-.568,1.827l2.848,10.9a.457.457,0,0,0,.178.26q-3.425,6.715-6.486,13.6c-2.461,5.548-4.713,11.188-6.8,16.887l-.083,3.2a277.442,277.442,0,0,1,14.507-33.629q8.585.73,17.153,1.631c.383-.3.763-.6,1.148-.891q-8.892-.93-17.8-1.707a279.171,279.171,0,0,1,15.03-25.649q16.293,1.772,32.66,2.588c.333-.319.662-.639.993-.96q-16.541-.8-33.02-2.574a275.806,275.806,0,0,1,18.517-24.692l.012,0,35.125,4.56c.242-.305.483-.61.723-.917L631.2,271.647A268.551,268.551,0,0,1,654.029,247.884Z" transform="translate(-581.097 -225.797)" fill="#5d94aa"/>
              </g>
              <g id="Group_1138" data-name="Group 1138" transform="translate(33.39 33.988)">
                <path id="Path_2054" data-name="Path 2054" d="M466.587,243.248c-2.564-6.019-2.107-12.821-2.13-19.363a122.677,122.677,0,0,0-1.977-21.519c-1.12-6.161-3.058-16.517-11-16.673a8.86,8.86,0,0,0-7.737,4.435,44.888,44.888,0,0,0-2.036-21.072c-1.571-4.5-4.012-8.917-7.959-11.6s-9.643-3.176-13.357-.182a9.191,9.191,0,0,0-3.105,9.056,24.556,24.556,0,0,0-20.4-20.119c-7.236-.98-16.309,2.881-15.874,11.654.424,8.542,11.934,19.254,18.1,24.156-4.593-.37-9.743-.567-13.2,2.476-3.817,3.358-3.877,9.592-1.393,14.028s6.894,7.422,11.307,9.948c7.511,4.3,15.594,6.123,23.167,10l-3.482,2.279A15.8,15.8,0,0,0,412.606,223c-3.092,3.262-2.835,8.587-.9,12.644,5.439,11.405,20.58,13.587,31.385,16.5a54.134,54.134,0,0,1,24.618,14.5c3.8,3.92,7.132,8.8,7.252,14.256" transform="translate(-380.999 -146.065)" fill="#6cd5c7"/>
                <path id="Path_2055" data-name="Path 2055" d="M404.173,169.334a278.178,278.178,0,0,0-19.742-19.771c.253-.221.511-.436.784-.637q10.173,9.216,19.354,19.36a133.642,133.642,0,0,0,2.816-17.79c.326.237.636.493.951.746a134.68,134.68,0,0,1-2.9,17.794.491.491,0,0,1-.069.149q10.284,11.426,19.477,23.8,3.581-18.4,6.1-36.971.487.181.96.4-2.579,18.924-6.241,37.676c7.2,9.706,13.945,19.772,20.346,30.066,3.726-12.3,7.405-24.833,9.008-37.584a7.961,7.961,0,0,1,.946.6c-1.677,12.916-5.446,25.611-9.221,38.06-.007.022-.022.035-.03.056q4.933,7.978,9.6,16.117a.555.555,0,0,1,.187.325c5.7,9.913,11.135,19.961,16.394,30.034l.329,1.479a.531.531,0,0,1-.437.139,24.307,24.307,0,0,0-1.327-2.175c-5.058-9.665-10.281-19.306-15.746-28.825q-13.59,3.163-27.294,5.782-.951-.319-1.886-.668,14.385-2.718,28.653-6.03-4.6-7.984-9.442-15.836-17.63,3.214-35.436,5.241c-.037-.335-.066-.669-.077-1q17.545-2,34.937-5.157c-6.3-10.145-12.95-20.068-20.029-29.643a.583.583,0,0,1-.36-.113q-19.629,3.038-39.4,4.958c-.215-.308-.413-.63-.608-.954q19.858-1.917,39.587-4.956-9.158-12.3-19.352-23.728-8.353.789-16.715,1.494-.411-.472-.809-.953Q395.83,170.1,404.173,169.334Z" transform="translate(-380.961 -146.033)" fill="#5b94ab"/>
              </g>
              <g id="Group_1139" data-name="Group 1139" transform="translate(0.517 121.948)">
                <path id="Path_2056" data-name="Path 2056" d="M449.445,356.677c-6.948-25.145-13.064-50.865-25.556-73.766s-32.577-43.116-57.975-49.07c-5.042-1.182-11.11-1.488-14.606,2.332-2.224,2.43-2.785,5.943-2.816,9.236-.144,15.14,8.63,28.858,18.175,40.61a240.732,240.732,0,0,0,36.274,36.035c8.934,7.159,18.389,13.69,26.854,21.4s16.015,16.782,20.019,27.508" transform="translate(-348.49 -233.05)" fill="#00b79d"/>
                <path id="Path_2057" data-name="Path 2057" d="M376.858,255.12a.586.586,0,0,1-.183.007.476.476,0,0,1-.1.041l-25.526,4.979c-.111-.322-.237-.638-.342-.961l25.219-4.921a260.021,260.021,0,0,0-23.578-19.078,8.756,8.756,0,0,1,.875-.6,258.93,258.93,0,0,1,23.043,18.618q.159-8.039-.053-16.074c.343.14.687.274,1.026.419q.211,8.283.026,16.573A269.546,269.546,0,0,1,400.014,277.7q2.134-10.683,4.269-21.368c.285.288.573.573.855.866l-4.29,21.472a277.419,277.419,0,0,1,19.143,25.465q3.062-8.735,5.8-17.577.334.654.66,1.309-2.7,8.658-5.714,17.218a.6.6,0,0,1-.059.1,279.8,279.8,0,0,1,14.989,25.592L438.742,319c.193.607.378,1.217.568,1.826q-1.424,5.45-2.848,10.9a.455.455,0,0,1-.178.261q3.425,6.713,6.486,13.6c2.461,5.548,4.713,11.188,6.8,16.888l.083,3.2a277.443,277.443,0,0,0-14.507-33.629q-8.585.731-17.153,1.632c-.383-.3-.763-.6-1.148-.892q8.891-.93,17.8-1.706a278.906,278.906,0,0,0-15.03-25.649q-16.293,1.77-32.66,2.588c-.333-.319-.662-.64-.993-.961q16.542-.8,33.02-2.573a275.787,275.787,0,0,0-18.517-24.691l-.012,0-35.125,4.559c-.242-.305-.483-.61-.723-.917l35.082-4.553A268.706,268.706,0,0,0,376.858,255.12Z" transform="translate(-348.465 -233.033)" fill="#118192"/>
              </g>
              <path id="Path_2058" data-name="Path 2058" d="M418.35,408.105l-2.709,10.08L397.176,419.6S382.2,416.9,380.57,422c15.716,4.864,41.344,11.111,41.344,11.111l5.732-21.328" transform="translate(-347.614 -109.142)" fill="#eda38e"/>
              <path id="Path_2059" data-name="Path 2059" d="M416.432,415.165l-.791,2.941-18.465,1.413s-14.977-2.7-16.606,2.4c15.716,4.864,41.344,11.111,41.344,11.111l4.109-15.29Z" transform="translate(-347.614 -109.063)" fill="#332a59"/>
              <rect id="Rectangle_309" data-name="Rectangle 309" width="167.004" height="299.176" rx="11.548" transform="translate(80.37 1.846)" fill="#cfcaeb"/>
              <rect id="Rectangle_310" data-name="Rectangle 310" width="48.226" height="7.012" rx="2.359" transform="translate(139.759 7.941)" fill="#dfdcf1"/>
              <path id="Path_2060" data-name="Path 2060" d="M594.463,401.776V125.955a11.678,11.678,0,0,0-11.677-11.677h-6.365c.635,27.56-7.219,55.792-20.016,80.486-19.716,38.044-49.964,69.395-79.651,100.294-17.041,17.735-34.181,35.727-49.295,55.093v51.625a11.677,11.677,0,0,0,11.677,11.677H582.785A11.677,11.677,0,0,0,594.463,401.776Z" transform="translate(-347.089 -112.433)" fill="#83349e" opacity="0.33" style="mix-blend-mode: multiply;isolation: isolate"/>
              <circle id="Ellipse_46" data-name="Ellipse 46" cx="10.455" cy="10.455" r="10.455" transform="translate(149.195 281.24) rotate(-51.944)" fill="#dfdcf1"/>
              <rect id="Rectangle_311" data-name="Rectangle 311" width="152.182" height="238.605" transform="translate(87.781 22.5)" fill="#fff"/>
              <rect id="Rectangle_312" data-name="Rectangle 312" width="134.656" height="26.206" transform="translate(97.017 31.97)" fill="#dddaf0" opacity="0.67"/>
              <rect id="Rectangle_313" data-name="Rectangle 313" width="134.656" height="52.741" transform="translate(97.017 137.979)" fill="#dddaf0" opacity="0.67"/>
              <rect id="Rectangle_314" data-name="Rectangle 314" width="134.656" height="29" transform="translate(97.017 200.008)" fill="#d6e8f6" opacity="0.67"/>
              <rect id="Rectangle_315" data-name="Rectangle 315" width="134.656" height="7.081" transform="translate(97.017 73.145)" fill="#dddaf0" opacity="0.67"/>
              <rect id="Rectangle_316" data-name="Rectangle 316" width="134.656" height="7.081" transform="translate(97.017 89.858)" fill="#dddaf0" opacity="0.67"/>
              <rect id="Rectangle_317" data-name="Rectangle 317" width="134.656" height="7.081" transform="translate(97.017 106.571)" fill="#dddaf0" opacity="0.67"/>
              <rect id="Rectangle_318" data-name="Rectangle 318" width="134.656" height="7.081" transform="translate(97.017 123.283)" fill="#dddaf0" opacity="0.67"/>
              <path id="Path_2061" data-name="Path 2061" d="M458.17,280.943s-29.417,60.407-43.444,132.913c12.359,3.345,14.091,3.125,14.091,3.125s24.1-89.858,68.163-137.257" transform="translate(-347.232 -110.58)" fill="#6451bf"/>
              <path id="Path_2062" data-name="Path 2062" d="M503.089,187.21a175.785,175.785,0,0,0-2.557-21.1c-.531-2.9-.83-6.044-2.31-8.592a12.376,12.376,0,0,0-2.569-3.238,13.005,13.005,0,0,0-3.008-1.224c-.64-2.388-2.968-3.935-5.292-4.78-6.055-2.2-12.257-.744-18.426-.289-7.056.521-14.057,1.292-21.138,1.523-5.145.168-10.149,3.42-11.075,8.788-.721,4.183,1.8,8.826,5.861,10.083a9.155,9.155,0,0,0-3.908,8.269c.406,3.174,3.239,6.011,6.438,5.947-1.021,3.952,1.484,8.331,5.224,9.967a11.759,11.759,0,0,0,11.547-1.728" transform="translate(-346.987 -112.065)" fill="#ffd648"/>
              <path id="Path_2064" data-name="Path 2064" d="M486.618,157.233s-29.274-9.372-35.161,9.593c-6.292,20.269-2.869,34.643,1.564,37.583,3.312,3.622,26.523,6.674,37.887-2.875S486.618,157.233,486.618,157.233Z" transform="translate(-346.859 -111.977)" fill="#eda38e"/>
              <path id="Path_2065" data-name="Path 2065" d="M585.549,327.846c-1.412-5.686-2.417-9.57-2.417-9.57l-21.5,5.036,1.154,9.93,10.164-2.38,9.975,15.6a53.02,53.02,0,0,0,2.628,6.365Z" transform="translate(-345.586 -110.148)" fill="#eda38e"/>
              <path id="Path_2066" data-name="Path 2066" d="M585.482,327.847c-1.412-5.686-2.417-9.571-2.417-9.571l-15.417,3.61,2.265,9.67,2.965-.695,9.975,15.6a53.02,53.02,0,0,0,2.628,6.365Z" transform="translate(-345.519 -110.148)" fill="#332a59"/>
              <path id="Path_2067" data-name="Path 2067" d="M472.3,279.894s13.794,60.1,26.635,67.706,68.977-13.284,68.977-13.284l-2.725-12.441-54.013,6.52-11.76-52.208-20.15,2.38Z" transform="translate(-346.587 -110.619)" fill="#6451bf"/>
              <path id="Path_2069" data-name="Path 2069" d="M471.069,197.476l8.84,30.577,12.737-8.887-12.737-25.617-8.84,2.758" transform="translate(-346.601 -111.545)" fill="#eda38e"/>
              <path id="Path_2070" data-name="Path 2070" d="M480.707,215.005l-23.745,11.567-4,68.317,49.573-5.087L501.22,247.19l4.1-28.573Z" transform="translate(-346.803 -111.305)" fill="#ffd648"/>
              <path id="Path_2071" data-name="Path 2071" d="M466.992,163.466l-5.273,20.879,9.455.6Z" transform="translate(-346.705 -111.882)" fill="#f48e76"/>
              <g id="Group_1145" data-name="Group 1145" transform="translate(109.652 64.179)">
                <g id="Group_1142" data-name="Group 1142" transform="translate(8.692 10.043)">
                  <path id="Path_2072" data-name="Path 2072" d="M465.134,188.78a5.989,5.989,0,0,0,10.55-2.3.506.506,0,0,0-.975-.269,4.979,4.979,0,0,1-8.86,1.853c-.411-.507-1.121.213-.715.715Z" transform="translate(-465.013 -185.853)" fill="#b76f5e"/>
                </g>
                <g id="Group_1143" data-name="Group 1143">
                  <path id="Path_2073" data-name="Path 2073" d="M456.417,176.41V181.5a.506.506,0,0,0,1.011,0V176.41a.506.506,0,0,0-1.011,0Z" transform="translate(-456.417 -175.921)" fill="#b76f5e"/>
                </g>
                <g id="Group_1144" data-name="Group 1144" transform="translate(22.03)">
                  <path id="Path_2074" data-name="Path 2074" d="M478.2,176.41V181.5a.506.506,0,0,0,1.011,0V176.41a.506.506,0,0,0-1.011,0Z" transform="translate(-478.203 -175.921)" fill="#b76f5e"/>
                </g>
              </g>
              <path id="Path_2075" data-name="Path 2075" d="M460.708,154.227a17.628,17.628,0,0,0,9.2,10,32.8,32.8,0,0,0,13.539,2.927c-.905,3.274-.351,6.777.565,10.048a24.318,24.318,0,0,0,4.667,9.484,12.469,12.469,0,0,0,9.251,4.585c.969-7.966-3.266-15.514-5.33-23.269-.848-3.188-1.41-6.625-3.543-9.141-1.747-2.06-4.318-3.209-6.839-4.178a26.571,26.571,0,0,0-8.769-2.114,31.123,31.123,0,0,0-4.974.411L460.991,154" transform="translate(-346.717 -112.004)" fill="#ffd648"/>
              <path id="Path_2076" data-name="Path 2076" d="M467.115,190.493h-95.8l6.494,91.7h83.9Z" transform="translate(-347.718 -111.579)" fill="#f7be71"/>
              <path id="Path_2077" data-name="Path 2077" d="M371.569,190.493l-23.031,12.8,9.055,80.1,20.47-1.2" transform="translate(-347.973 -111.579)" fill="#e8ac64"/>
              <path id="Path_2078" data-name="Path 2078" d="M367.324,199.4l-13.858,7.03.385,7.752,14.507-6.736Z" transform="translate(-347.918 -111.479)" fill="#d39959"/>
              <path id="Path_2079" data-name="Path 2079" d="M459.489,195.712H423.556v9.207h35.232Z" transform="translate(-347.133 -111.521)" fill="#e8ac64"/>
              <g id="Group_1146" data-name="Group 1146">
                <path id="Path_2080" data-name="Path 2080" d="M398.332,154.472A27.317,27.317,0,1,0,389.694,163l8.836,2.8a2.171,2.171,0,0,0,2.712-2.77Z" transform="translate(-347.979 -112.453)" fill="#e678a8"/>
                <path id="Path_2081" data-name="Path 2081" d="M375.116,124.545c-5.512-.22-10.457,4.775-10.457,10.576s5.724,17.369,10.457,19.622c4.732-2.253,10.457-13.821,10.457-19.622S380.628,124.325,375.116,124.545Zm0,14.461a5.249,5.249,0,1,1,5.249-5.249A5.249,5.249,0,0,1,375.116,139.006Z" transform="translate(-347.792 -112.318)" fill="#fff"/>
              </g>
              <path id="Path_2082" data-name="Path 2082" d="M489.375,230.447c3.793-2.92,6.187-7.276,8.165-11.635.184-.408.357-.82.536-1.23l-17.562-2.578-10.32,5.028a20.972,20.972,0,0,0,.187,2.744c.512,3.711,2.335,7.427,5.566,9.322C480.076,234.521,485.582,233.367,489.375,230.447Z" transform="translate(-346.61 -111.305)" fill="#eda38e"/>
              <path id="Path_2083" data-name="Path 2083" d="M478.133,247.652s-21.941,11.611-71.037,14.264a54.477,54.477,0,0,0,1.2,13.915c23.062,1.487,71.431,1.623,88.652-21.219Z" transform="translate(-347.317 -110.939)" fill="#eda38e"/>
              <path id="Path_2084" data-name="Path 2084" d="M495.154,262.4,471.43,249.542s10.974-36.647,26.845-35.5C518.053,215.481,504.262,249.124,495.154,262.4Z" transform="translate(-346.596 -111.316)" fill="#ffb14a"/>
              <g id="Group_1148" data-name="Group 1148" transform="translate(274.074 15.617)">
                <path id="Path_2085" data-name="Path 2085" d="M623.313,169.916a27.313,27.313,0,1,1,8.637,8.527l-8.836,2.8a2.172,2.172,0,0,1-2.712-2.77Z" transform="translate(-619.018 -127.897)" fill="#a790fa"/>
                <g id="Group_1147" data-name="Group 1147" transform="translate(10.073 11.706)">
                  <path id="Path_2086" data-name="Path 2086" d="M641.95,166.173a2.443,2.443,0,1,0,2.442,2.443A2.443,2.443,0,0,0,641.95,166.173Z" transform="translate(-628.862 -139.175)" fill="#fff"/>
                  <path id="Path_2087" data-name="Path 2087" d="M655.05,166.173a2.443,2.443,0,1,0,2.442,2.443A2.443,2.443,0,0,0,655.05,166.173Z" transform="translate(-628.715 -139.175)" fill="#fff"/>
                  <path id="Path_2088" data-name="Path 2088" d="M657.777,160.243l2.315-11.257a1.685,1.685,0,0,0-1.65-2.023H637.966l-.762-3.849a.785.785,0,0,0-.449-.564l-6.664-3.006a.787.787,0,0,0-.647,1.435l6.295,2.839,1.56,7.874,0,.006,2.587,13.049a.785.785,0,0,0,.772.633h16.347a.787.787,0,0,0,0-1.573H641.3l-.583-2.936h16.283A.788.788,0,0,0,657.777,160.243Zm-7.463-.945-.241-2.2h3.532l.241,2.2Zm-5.116,0-.241-2.2h3.532l.241,2.2Zm-.763-6.973h3.532l.35,3.2h-3.532Zm-1.234,3.2h-3.539l-.634-3.2h3.823Zm4.351-6.988.242,2.214h-3.532l-.243-2.214Zm5.116,0,.242,2.214h-3.532l-.242-2.214Zm-2.768,6.988-.35-3.2h3.532l.35,3.2Zm4.766-3.2H657.8l-.658,3.2h-2.123Zm3.86-3.746a.1.1,0,0,1,.023.092l-.428,2.08h-3.628l-.242-2.214h4.189A.105.105,0,0,1,658.526,148.578Zm-16.089-.041.242,2.214h-3.963l-.438-2.214Zm-2.462,8.562h3.4l.241,2.2h-3.2Zm15.455,2.2-.241-2.2h1.627l-.452,2.2Z" transform="translate(-628.98 -139.474)" fill="#fff"/>
                </g>
              </g>
              <path id="Path_2089" data-name="Path 2089" d="M430.384,410.074c.178-.6.369-1.236.577-1.923q-7.349-1.743-14.559-4.017-.209.989-.417,1.98Q423.116,408.35,430.384,410.074Z" transform="translate(-347.217 -109.187)" fill="#24b2b2"/>
              <path id="Path_2090" data-name="Path 2090" d="M559.359,336.484q1.022-.347,1.928-.662-1.165-6.924-2.719-13.776l-2.017.244Q558.169,329.344,559.359,336.484Z" transform="translate(-345.643 -110.106)" fill="#24b2b2"/>
              <path id="Path_2091" data-name="Path 2091" d="M501.891,193.765c-3.28,4-8.236,5.354-11.068,3.031s-2.466-7.45.815-11.447,8.236-5.353,11.068-3.03S505.172,189.768,501.891,193.765Z" transform="translate(-346.401 -111.683)" fill="#eda38e"/>
            </g>
          </g>
        </g>
      </g>
    </g>
  </g>
</svg>
