<svg xmlns="http://www.w3.org/2000/svg" xmlns:xlink="http://www.w3.org/1999/xlink" width="586.191" height="395.554" viewBox="0 0 586.191 395.554">
  <defs>
    <linearGradient id="linear-gradient" x1="0.5" y1="1" x2="0.5" gradientUnits="objectBoundingBox">
      <stop offset="0" stop-color="#fff"/>
      <stop offset="0.062" stop-color="#fff" stop-opacity="0.859"/>
      <stop offset="0.16" stop-color="#fff" stop-opacity="0.659"/>
      <stop offset="0.262" stop-color="#fff" stop-opacity="0.482"/>
      <stop offset="0.367" stop-color="#fff" stop-opacity="0.333"/>
      <stop offset="0.476" stop-color="#fff" stop-opacity="0.212"/>
      <stop offset="0.588" stop-color="#fff" stop-opacity="0.118"/>
      <stop offset="0.708" stop-color="#fff" stop-opacity="0.051"/>
      <stop offset="0.838" stop-color="#fff" stop-opacity="0.012"/>
      <stop offset="1" stop-color="#fff" stop-opacity="0"/>
    </linearGradient>
  </defs>
  <g id="Group_8040" data-name="Group 8040" transform="translate(-644.809 -1405.318)">
    <g id="Group_1158" data-name="Group 1158" transform="translate(644.809 1405.318)" style="isolation: isolate">
      <path id="Path_1257" data-name="Path 1257" d="M596.277,398.186c48.331-54.77,71.7-113.552,35.663-171.572-38.442-61.889-99.947-34.227-149.862-65.668-61.8-38.929-126.9-109.331-215.209-79.642-48.921,16.447-62.284,74.472-64.214,83.732-.383,1.831-.782,3.647-1.246,5.46-3.9,15.176-17.252,56.558-71.336,107.164-32.915,30.8-46.031,88.669-25.267,128.385,0,0,42.689,53.157,116.027,62.389s95.482-33.646,177.324-25.462,70.93,13.64,120.944,0S593.9,400.875,596.277,398.186Z" transform="translate(-63.26 -74.192)" fill="#f2f2f2"/>
      <path id="Path_1258" data-name="Path 1258" d="M161.487,106.705c-2.212-10.315-10.785-17.964-21.268-20-13.342-2.59-35.065-1.01-58.553,24.242-38.437,41.321-7.143,65.729,19.816,67.479C124.69,179.935,168.492,139.379,161.487,106.705Z" transform="translate(-63.728 -74.017)" fill="#ececec"/>
    </g>
    <g id="Group_8037" data-name="Group 8037" transform="translate(564 1390)">
      <g id="Group_8000" data-name="Group 8000">
        <rect id="Rectangle_351" data-name="Rectangle 351" width="78.761" height="80.833" rx="9.792" transform="translate(399.044 297.38) rotate(-81.051)" fill="#e25f97" opacity="0.57"/>
        <path id="Rectangle_352" data-name="Rectangle 352" d="M8.445,0H59.478a8.445,8.445,0,0,1,8.445,8.445V61.265a8.445,8.445,0,0,1-8.445,8.445H8.444A8.444,8.444,0,0,1,0,61.265V8.445A8.445,8.445,0,0,1,8.445,0Z" transform="translate(405.381 292.892) rotate(-81.05)" fill="#e25f97" opacity="0.57"/>
        <g id="Group_7995" data-name="Group 7995" opacity="0.33" style="mix-blend-mode: multiply;isolation: isolate">
          <path id="Path_2778" data-name="Path 2778" d="M419.421,300.771a.4.4,0,0,1-.337-.463L431.3,222.746a.4.4,0,1,1,.8.126l-12.214,77.562A.4.4,0,0,1,419.421,300.771Z" fill="#6455bc"/>
        </g>
        <g id="Group_7996" data-name="Group 7996" opacity="0.33" style="mix-blend-mode: multiply;isolation: isolate">
          <path id="Path_2779" data-name="Path 2779" d="M439.822,303.984a.406.406,0,0,1-.337-.463L451.7,225.959a.4.4,0,1,1,.8.126l-12.215,77.562A.4.4,0,0,1,439.822,303.984Z" fill="#6455bc"/>
        </g>
        <g id="Group_7997" data-name="Group 7997" opacity="0.33" style="mix-blend-mode: multiply;isolation: isolate">
          <path id="Path_2780" data-name="Path 2780" d="M460.223,307.2a.4.4,0,0,1-.336-.463L472.1,229.172a.4.4,0,0,1,.8.125L460.686,306.86A.4.4,0,0,1,460.223,307.2Z" fill="#6455bc"/>
        </g>
        <g id="Group_7998" data-name="Group 7998" opacity="0.33" style="mix-blend-mode: multiply;isolation: isolate">
          <path id="Path_2781" data-name="Path 2781" d="M486.37,258.439l-78.2-12.316a.4.4,0,0,1,.126-.8L486.5,257.639a.4.4,0,1,1-.126.8Z" fill="#6455bc"/>
        </g>
        <g id="Group_7999" data-name="Group 7999" opacity="0.33" style="mix-blend-mode: multiply;isolation: isolate">
          <path id="Path_2782" data-name="Path 2782" d="M482.122,285.417,403.916,273.1a.4.4,0,0,1,.126-.8l78.206,12.316a.4.4,0,0,1-.126.8Z" fill="#6455bc"/>
        </g>
        <path id="Path_2783" data-name="Path 2783" d="M429.706,248.744a1.979,1.979,0,1,1-1.647-2.262A1.978,1.978,0,0,1,429.706,248.744Z" fill="#6455bc"/>
        <path id="Path_2784" data-name="Path 2784" d="M470.647,255.192A1.979,1.979,0,1,1,469,252.93,1.978,1.978,0,0,1,470.647,255.192Z" fill="#6455bc"/>
        <path id="Path_2785" data-name="Path 2785" d="M425.548,275.815a1.979,1.979,0,1,1-1.646-2.263A1.978,1.978,0,0,1,425.548,275.815Z" fill="#6455bc"/>
        <path id="Path_2786" data-name="Path 2786" d="M466.284,282.23a1.979,1.979,0,1,1-1.647-2.263A1.979,1.979,0,0,1,466.284,282.23Z" fill="#6455bc"/>
      </g>
      <g id="Group_8001" data-name="Group 8001" opacity="0.44">
        <path id="Path_2787" data-name="Path 2787" d="M250.59,245.169s21.86-29.772,66-23.674c0,0,28.829,38.592,27.868,64.715,0,0-35.053,23.793-65.115,22.415C279.342,308.625,257.711,298.6,250.59,245.169Z" fill="#6455bc"/>
        <path id="Path_2788" data-name="Path 2788" d="M257.539,245.211s19.493-26.548,58.852-21.111c0,0,25.707,34.413,24.85,57.707,0,0-31.257,21.216-58.063,19.987C283.178,301.794,263.889,292.852,257.539,245.211Z" fill="#ddd6fe" opacity="0.53"/>
        <ellipse id="Ellipse_61" data-name="Ellipse 61" cx="5.168" cy="5.44" rx="5.168" ry="5.44" transform="translate(295.478 255.554) rotate(-9.903)" fill="#6455bc"/>
      </g>
      <g id="Group_8010" data-name="Group 8010">
        <g id="Group_8008" data-name="Group 8008">
          <g id="Group_8003" data-name="Group 8003">
            <path id="Path_2789" data-name="Path 2789" d="M282.352,286.119c-2.148,3.045-5.505,4.374-7.5,2.967s-1.868-5.014.28-8.059,8.768-8.679,10.761-7.273S284.5,283.073,282.352,286.119Z" fill="#74d3c5"/>
            <line id="Line_321" data-name="Line 321" x1="8.062" y2="11.429" transform="translate(274.854 277.658)" fill="none" stroke="#3f2f7c" stroke-miterlimit="10" stroke-width="0.368" opacity="0.39"/>
          </g>
          <g id="Group_8004" data-name="Group 8004">
            <path id="Path_2790" data-name="Path 2790" d="M256.3,288.4c2.992,2.222,6.6,2.435,8.05.477s.208-5.347-2.784-7.569-11.039-5.506-12.494-3.548S253.3,286.178,256.3,288.4Z" fill="#74d3c5"/>
            <line id="Line_322" data-name="Line 322" x2="11.228" y2="8.339" transform="translate(253.119 280.539)" fill="none" stroke="#3f2f7c" stroke-miterlimit="10" stroke-width="0.368" opacity="0.39"/>
          </g>
          <g id="Group_8005" data-name="Group 8005">
            <path id="Path_2791" data-name="Path 2791" d="M278.634,282.627c-1.479,4.812-5.231,7.929-8.381,6.961s-4.5-5.653-3.026-10.465,7.61-14.827,10.76-13.859S280.112,277.815,278.634,282.627Z" fill="#14b59d"/>
            <line id="Line_323" data-name="Line 323" x1="5.549" y2="18.06" transform="translate(270.253 271.528)" fill="none" stroke="#3f2f7c" stroke-miterlimit="10" stroke-width="0.497" opacity="0.39"/>
          </g>
          <g id="Group_8006" data-name="Group 8006">
            <path id="Path_2792" data-name="Path 2792" d="M269.052,278.742c2.4,4.425,2,9.286-.9,10.858s-7.19-.741-9.592-5.165S253.3,268.621,256.2,267.05,266.65,274.318,269.052,278.742Z" fill="#14b59d"/>
            <line id="Line_324" data-name="Line 324" x2="9.013" y2="16.605" transform="translate(259.143 272.995)" fill="none" stroke="#3f2f7c" stroke-miterlimit="10" stroke-width="0.497" opacity="0.39"/>
          </g>
          <g id="Group_8007" data-name="Group 8007">
            <path id="Path_2793" data-name="Path 2793" d="M274.333,280.7c0,5.034-2.672,9.115-5.967,9.115s-5.966-4.081-5.966-9.115,2.92-16.407,6.215-16.407S274.333,275.67,274.333,280.7Z" fill="#74d3c5"/>
            <line id="Line_325" data-name="Line 325" y2="18.893" transform="translate(268.366 270.926)" fill="none" stroke="#3f2f7c" stroke-miterlimit="10" stroke-width="0.497" opacity="0.39"/>
          </g>
        </g>
        <g id="Group_8009" data-name="Group 8009">
          <path id="Path_2794" data-name="Path 2794" d="M257.584,290.452a12.24,12.24,0,1,0,20.5,0Z" fill="#6455bc"/>
          <path id="Path_2795" data-name="Path 2795" d="M280.057,296.742a12.161,12.161,0,0,0-1.977-6.29h-20.5a12.161,12.161,0,0,0-1.977,6.29Z" fill="#6455bc" style="mix-blend-mode: multiply;isolation: isolate"/>
          <path id="Path_2796" data-name="Path 2796" d="M279.8,292.509H255.32a1.91,1.91,0,0,1-1.9-1.9h0a1.91,1.91,0,0,1,1.9-1.9H279.8a1.91,1.91,0,0,1,1.9,1.9h0A1.91,1.91,0,0,1,279.8,292.509Z" fill="#6455bc"/>
        </g>
      </g>
      <g id="Group_8011" data-name="Group 8011">
        <ellipse id="Ellipse_66" data-name="Ellipse 66" cx="7.752" cy="8.16" rx="7.752" ry="8.16" transform="translate(509.64 180.248)" fill="#ddd6fe" opacity="0.34"/>
        <circle id="Ellipse_67" data-name="Ellipse 67" cx="4.08" cy="4.08" r="4.08" transform="translate(490.056 177.8)" fill="#ddd6fe" opacity="0.34"/>
      </g>
      <g id="Group_8012" data-name="Group 8012">
        <ellipse id="Ellipse_68" data-name="Ellipse 68" cx="7.752" cy="8.16" rx="7.752" ry="8.16" transform="translate(174.672 177.8)" fill="#ddd6fe" opacity="0.34"/>
        <circle id="Ellipse_69" data-name="Ellipse 69" cx="4.08" cy="4.08" r="4.08" transform="translate(187.32 161.48)" fill="#ddd6fe" opacity="0.34"/>
        <circle id="Ellipse_70" data-name="Ellipse 70" cx="4.08" cy="4.08" r="4.08" transform="translate(196.296 176.984)" fill="#ddd6fe" opacity="0.34"/>
      </g>
      <g id="Group_8013" data-name="Group 8013">
        <path id="Path_2797" data-name="Path 2797" d="M284.394,232.136h-.012c0-.081.012-.16.012-.241V212.8a9.013,9.013,0,0,0-8.988-8.987H238.334a9.013,9.013,0,0,0-8.987,8.987v19.1a9.014,9.014,0,0,0,8.987,8.988h51.193C285.978,240.559,284.394,232.136,284.394,232.136Z" fill="#f6f6f6" stroke="#a793f7" stroke-miterlimit="10" stroke-width="0.749"/>
        <path id="Path_2798" data-name="Path 2798" d="M236.6,213.217h42.263a.809.809,0,0,0,.807-.807h0a.809.809,0,0,0-.807-.806H236.6a.809.809,0,0,0-.806.806h0A.809.809,0,0,0,236.6,213.217Z" fill="#a793f7"/>
        <path id="Path_2799" data-name="Path 2799" d="M236.6,223.648h42.263a.809.809,0,0,0,.807-.806h0a.809.809,0,0,0-.807-.807H236.6a.809.809,0,0,0-.806.807h0A.809.809,0,0,0,236.6,223.648Z" fill="#a793f7"/>
        <rect id="Rectangle_353" data-name="Rectangle 353" width="30.326" height="1.29" rx="0.6" transform="translate(249.349 216.981)" fill="#a793f7"/>
        <rect id="Rectangle_354" data-name="Rectangle 354" width="30.326" height="1.29" rx="0.6" transform="translate(249.349 227.412)" fill="#a793f7"/>
      </g>
      <g id="Group_8015" data-name="Group 8015">
        <path id="Path_2800" data-name="Path 2800" d="M421,157.647h.012c0-.081-.012-.16-.012-.241v-19.1a9.013,9.013,0,0,1,8.987-8.988h37.072a9.014,9.014,0,0,1,8.988,8.988v19.1a9.014,9.014,0,0,1-8.988,8.988H415.867C419.416,166.07,421,157.647,421,157.647Z" fill="#f6f6f6" stroke="#a793f7" stroke-miterlimit="10" stroke-width="0.749"/>
        <path id="Path_2801" data-name="Path 2801" d="M468.788,138.728H426.526a.809.809,0,0,1-.807-.806h0a.809.809,0,0,1,.807-.807h42.262a.809.809,0,0,1,.807.807h0A.809.809,0,0,1,468.788,138.728Z" fill="#a793f7"/>
        <path id="Path_2802" data-name="Path 2802" d="M468.788,149.159H426.526a.809.809,0,0,1-.807-.806h0a.809.809,0,0,1,.807-.807h42.262a.809.809,0,0,1,.807.807h0A.809.809,0,0,1,468.788,149.159Z" fill="#a793f7"/>
        <rect id="Rectangle_355" data-name="Rectangle 355" width="30.326" height="1.291" rx="0.6" transform="translate(425.719 142.492)" fill="#a793f7"/>
        <rect id="Rectangle_356" data-name="Rectangle 356" width="30.326" height="1.291" rx="0.6" transform="translate(425.719 152.923)" fill="#a793f7"/>
      </g>
      <g id="Group_8016" data-name="Group 8016">
        <ellipse id="Ellipse_71" data-name="Ellipse 71" cx="7.55" cy="7.97" rx="7.55" ry="7.97" transform="translate(490.867 242.739)" fill="#fff"/>
        <path id="Path_2803" data-name="Path 2803" d="M531.19,303.2H519.444V250.285a10.928,10.928,0,0,0,1.678-8.587l2.415-1.361a3.146,3.146,0,0,0-3.089-5.482l-2.415,1.361a10.889,10.889,0,0,0-16.935,2.325l-.146-.26-12.248.742,14.828,26.311,6.978-10.094-.147-.26a10.842,10.842,0,0,0,5.473-1.395c.087-.05.167-.106.253-.157V303.2H502.665a2.936,2.936,0,0,0,0,5.873H531.19a2.936,2.936,0,0,0,0-5.873Z" fill="#3f2f7c"/>
      </g>
      <g id="Group_8017" data-name="Group 8017">
        <path id="Path_2804" data-name="Path 2804" d="M456.618,301.361c2.271,4.571,6.2,7.6,10.672,7.6,7.029,0,12.727-7.469,12.727-16.683,0-.466-.018-.927-.047-1.383H454.609c-.022.358-.035.72-.041,1.084-2.5.773-4.243,2.646-4.159,4.767C450.51,299.308,453.246,301.3,456.618,301.361Zm-3.459-4.728a4.215,4.215,0,0,1,1.436-3.223,20.473,20.473,0,0,0,1.659,7.169A4.719,4.719,0,0,1,453.159,296.633Z" fill="#fff"/>
        <path id="Path_2805" data-name="Path 2805" d="M450.409,296.741c.1,2.567,2.837,4.556,6.209,4.62,2.271,4.571,6.2,7.6,10.672,7.6a10.938,10.938,0,0,0,7.838-3.544,19.034,19.034,0,0,1-4.734-.3,23.1,23.1,0,0,1-9.124-3.587c-3.588-2.593-5.551-6.484-6.655-10.632h-.006c-.022.358-.035.72-.041,1.084C452.067,292.747,450.325,294.62,450.409,296.741Zm2.75-.108a4.215,4.215,0,0,1,1.436-3.223,20.473,20.473,0,0,0,1.659,7.169A4.719,4.719,0,0,1,453.159,296.633Z" fill="#ddd6fe" opacity="0.34"/>
        <ellipse id="Ellipse_72" data-name="Ellipse 72" cx="12.873" cy="1.574" rx="12.873" ry="1.574" transform="translate(454.361 289.513)" fill="#ddd6fe"/>
        <path id="Path_2806" data-name="Path 2806" d="M456.4,291.087c0,.731,4.849,1.324,10.83,1.324s10.83-.593,10.83-1.324-4.849-1.324-10.83-1.324S456.4,290.356,456.4,291.087Z" fill="#6455bc"/>
        <path id="Path_2807" data-name="Path 2807" d="M468.46,291.257a2.455,2.455,0,0,0,1.59-.685,3.8,3.8,0,0,0,.978-1.529,4.537,4.537,0,0,0,.238-1.85,6.337,6.337,0,0,0-.436-1.787,18.739,18.739,0,0,0-1.675-3.03,19.074,19.074,0,0,1-1.506-2.8,8.62,8.62,0,0,1-.72-2.925,5.92,5.92,0,0,1,.558-2.864,4.6,4.6,0,0,1,.834-1.192,3.11,3.11,0,0,1,1.2-.787,1.645,1.645,0,0,1,1.364.056,1.4,1.4,0,0,1,.782,1.257,1.306,1.306,0,0,0,.01-.871,1.885,1.885,0,0,0-.51-.771,1.866,1.866,0,0,0-.858-.45,2.663,2.663,0,0,0-.974-.045,4.564,4.564,0,0,0-3.02,2.131,6.69,6.69,0,0,0-1.016,3.563,9.127,9.127,0,0,0,.765,3.563,16.262,16.262,0,0,0,1.737,3.042,26.528,26.528,0,0,1,1.8,2.685,6.263,6.263,0,0,1,.555,1.4,3.676,3.676,0,0,1,.058,1.47A2.908,2.908,0,0,1,468.46,291.257Z" fill="#fff"/>
        <path id="Path_2808" data-name="Path 2808" d="M464.932,289.273a2.221,2.221,0,0,0,.9-1.437,3.793,3.793,0,0,0-.091-1.777,8.62,8.62,0,0,0-1.7-2.834c-.316-.392-.6-.756-.862-1.148s-.51-.8-.744-1.223a22.694,22.694,0,0,1-1.24-2.788,6.035,6.035,0,0,0-.023,3.271,7.429,7.429,0,0,0,.6,1.57,8.645,8.645,0,0,0,.923,1.39,22.283,22.283,0,0,1,1.8,2.268,4.294,4.294,0,0,1,.5,1.25A2.739,2.739,0,0,1,464.932,289.273Z" fill="#fff"/>
        <path id="Path_2809" data-name="Path 2809" d="M476.773,295.431a.5.5,0,1,0,.5-.5A.5.5,0,0,0,476.773,295.431Z" fill="#6455bc"/>
        <path id="Path_2810" data-name="Path 2810" d="M470.729,296.564a.5.5,0,1,0,.5-.5A.5.5,0,0,0,470.729,296.564Z" fill="#6455bc"/>
        <circle id="Ellipse_73" data-name="Ellipse 73" cx="0.504" cy="0.504" r="0.504" transform="translate(463.678 296.186)" fill="#6455bc"/>
        <path id="Path_2811" data-name="Path 2811" d="M457.005,295.557a.5.5,0,1,0,.5-.5A.5.5,0,0,0,457.005,295.557Z" fill="#6455bc"/>
        <path id="Path_2812" data-name="Path 2812" d="M474,299.837a.5.5,0,1,0,.5-.5A.5.5,0,0,0,474,299.837Z" fill="#6455bc"/>
        <path id="Path_2813" data-name="Path 2813" d="M467.2,301.348a.5.5,0,1,0,.5-.5A.5.5,0,0,0,467.2,301.348Z" fill="#6455bc"/>
        <path id="Path_2814" data-name="Path 2814" d="M459.775,299.963a.5.5,0,1,0,.5-.5A.5.5,0,0,0,459.775,299.963Z" fill="#6455bc"/>
        <path id="Path_2815" data-name="Path 2815" d="M470.981,305a.5.5,0,1,0,.5-.5A.5.5,0,0,0,470.981,305Z" fill="#6455bc"/>
        <circle id="Ellipse_74" data-name="Ellipse 74" cx="0.504" cy="0.504" r="0.504" transform="translate(463.301 304.244)" fill="#6455bc"/>
      </g>
      <g id="Group_8022" data-name="Group 8022">
        <g id="Group_8019" data-name="Group 8019">
          <g id="Group_8018" data-name="Group 8018">
            <path id="Path_2816" data-name="Path 2816" d="M397.822,97.577q-1.844,1.614-3.726,3.178" fill="none" stroke="#a793f7" stroke-miterlimit="10" stroke-width="0.816"/>
            <path id="Path_2817" data-name="Path 2817" d="M386.171,106.992A193.188,193.188,0,0,1,317.959,139.4c-4.324,1.084-8.837,2.021-13.212,1.162s-8.6-3.949-9.473-8.321c-1.188-5.953,3.988-11.277,9.283-14.247,4.3-2.41,9.6-4.1,14.077-2.054,3.946,1.8,6.214,6.123,6.934,10.4,1.339,7.95-1.716,16.041-5.972,22.888s-9.725,12.877-14,19.713a68.559,68.559,0,0,0-7.407,55.352c4.142,13.749,13.372,26.373,25.812,33.185" fill="none" stroke="#a793f7" stroke-miterlimit="10" stroke-width="0.816" stroke-dasharray="10.085 10.085"/>
            <path id="Path_2818" data-name="Path 2818" d="M328.557,259.645a42.3,42.3,0,0,0,4.631,1.584" fill="none" stroke="#a793f7" stroke-miterlimit="10" stroke-width="0.816"/>
          </g>
        </g>
        <g id="Group_8021" data-name="Group 8021">
          <path id="Path_2819" data-name="Path 2819" d="M399.682,86.544s-10.424-3.853-23.908,1.5c0,0,11.487,10.411,15.959,12.656C391.733,100.7,404.444,88.444,399.682,86.544Z" fill="#3f2f7c"/>
          <path id="Path_2820" data-name="Path 2820" d="M400.488,89.437a36.218,36.218,0,0,1-6.142,1.163,25.124,25.124,0,0,1-15.373-3.673c-1.044.319-2.11.685-3.2,1.117,0,0,11.487,10.412,15.959,12.656C391.733,100.7,399.017,93.674,400.488,89.437Z" fill="#3f2f7c" style="mix-blend-mode: overlay;isolation: isolate"/>
          <path id="Path_2821" data-name="Path 2821" d="M410.473,106.123s-3.251,10.627-15.68,18.11c0,0-1.323-15.447-.4-20.364C394.394,103.869,411.846,101.183,410.473,106.123Z" fill="#3f2f7c"/>
          <path id="Path_2822" data-name="Path 2822" d="M404.542,103.156a66.186,66.186,0,0,0-10.148.713c-.924,4.917.4,20.364.4,20.364q.584-.351,1.14-.712C399.153,116.883,400.216,109.219,404.542,103.156Z" fill="#3f2f7c" style="mix-blend-mode: overlay;isolation: isolate"/>
          <path id="Path_2823" data-name="Path 2823" d="M420.586,100.648c-14.141,7.988-28.133,9.987-31.252,4.466s5.818-16.472,19.959-24.46,31.252-4.466,31.252-4.466S434.728,92.66,420.586,100.648Z" fill="#e25f97"/>
          <path id="Path_2824" data-name="Path 2824" d="M439.624,78.425a63.409,63.409,0,0,1-21.149,16.434,48.733,48.733,0,0,1-14.43,4.321c-4.049.6-8.861.815-12.439-1.512a4.6,4.6,0,0,1-.938-.8c-1.951,3.231-2.527,6.138-1.334,8.25,3.119,5.521,17.111,3.522,31.252-4.466C431.535,94.463,437.491,83.2,439.624,78.425Z" fill="#e25f97" opacity="0.38" style="mix-blend-mode: multiply;isolation: isolate"/>
          <path id="Path_2825" data-name="Path 2825" d="M434.792,87.062a53.161,53.161,0,0,0,5.753-10.874A53.163,53.163,0,0,0,428.2,75.5,29.3,29.3,0,0,1,434.792,87.062Z" fill="#3f2f7c"/>
          <g id="Group_8020" data-name="Group 8020">
            <path id="Path_2826" data-name="Path 2826" d="M423.867,93.661a6.848,6.848,0,1,1,2.6-9.331A6.848,6.848,0,0,1,423.867,93.661Z" fill="#74d3c5"/>
            <circle id="Ellipse_75" data-name="Ellipse 75" cx="5.213" cy="5.213" r="5.213" transform="translate(413.407 85.682) rotate(-29.128)" fill="#fff"/>
          </g>
          <path id="Path_2827" data-name="Path 2827" d="M397.294,98.52l1.678,2.971-16.6,7.76Z" fill="#3f2f7c"/>
        </g>
      </g>
      <g id="Group_8024" data-name="Group 8024">
        <rect id="Rectangle_357" data-name="Rectangle 357" width="70.372" height="47.817" rx="9.792" transform="translate(209.783 121.715)" fill="#f6f6f6" stroke="#a793f7" stroke-miterlimit="10" stroke-width="0.749"/>
        <path id="Path_2828" data-name="Path 2828" d="M279.808,128.973a9.822,9.822,0,0,0-9.445-7.257H219.575a9.823,9.823,0,0,0-9.446,7.257Z" fill="#6455bc" opacity="0.43"/>
        <path id="Path_2829" data-name="Path 2829" d="M210.815,164.079a9.812,9.812,0,0,0,8.76,5.453h50.788a9.812,9.812,0,0,0,8.76-5.453Z" fill="#6455bc" opacity="0.43"/>
        <g id="Group_8023" data-name="Group 8023">
          <circle id="Ellipse_76" data-name="Ellipse 76" cx="12.856" cy="12.856" r="12.856" transform="translate(241.448 145.85) rotate(-45)" fill="#6455bc"/>
          <path id="Path_2830" data-name="Path 2830" d="M265.268,134.346l-5.586,12.317,12.286-4.552S270.456,135.85,265.268,134.346Z" fill="#e25f97"/>
        </g>
        <path id="Path_2831" data-name="Path 2831" d="M238.728,137.408h-22.44a.818.818,0,0,1-.816-.816h0a.818.818,0,0,1,.816-.816h22.44a.818.818,0,0,1,.816.816h0A.818.818,0,0,1,238.728,137.408Z" fill="#e25f97"/>
        <path id="Path_2832" data-name="Path 2832" d="M238.728,140.672h-22.44a.818.818,0,0,1-.816-.816h0a.818.818,0,0,1,.816-.816h22.44a.818.818,0,0,1,.816.816h0A.818.818,0,0,1,238.728,140.672Z" fill="#e25f97"/>
      </g>
      <g id="Group_8025" data-name="Group 8025">
        <path id="Path_2833" data-name="Path 2833" d="M228.356,197.371l-3.622-2.442-4.065,1.6,1.2-4.2-2.778-3.372,4.366-.153,2.349-3.684,1.5,4.1,4.229,1.1-3.442,2.69Z" fill="#a793f7"/>
        <path id="Path_2834" data-name="Path 2834" d="M353.466,110.724l-3.365-.152-2.033,2.686-.9-3.247-3.182-1.1,2.812-1.855.066-3.368,2.633,2.1,3.223-.978-1.185,3.153Z" fill="#a793f7"/>
        <path id="Path_2835" data-name="Path 2835" d="M453.774,199.878l-3.144-3.034-4.281.87,1.914-3.927-2.15-3.8,4.326.607,2.952-3.22.76,4.3,3.975,1.813-3.857,2.052Z" fill="#a793f7"/>
        <path id="Path_2836" data-name="Path 2836" d="M391.64,68.716,388.5,65.683l-4.281.87,1.914-3.927-2.15-3.8,4.326.607,2.953-3.22.76,4.3,3.975,1.813-3.857,2.052Z" fill="#a793f7"/>
      </g>
      <g id="Group_8026" data-name="Group 8026">
        <path id="Path_2837" data-name="Path 2837" d="M233.913,299.047a39.6,39.6,0,0,0-2.411-5.98l5.34-4.9-6.641-7.244-4.216,3.865a40.167,40.167,0,0,0-6.294-5.852l3.431-6.73-8.755-4.464-3.217,6.31a39.606,39.606,0,0,0-9.2-2.585V264.35h-9.828v6.821a39.657,39.657,0,0,0-9.23,1.974l-2.856-5.6-8.756,4.463,2.776,5.444a40.106,40.106,0,0,0-6.995,5.793l-4.082-3.742-6.641,7.245,4.811,4.41a39.648,39.648,0,0,0-3.43,7.891h-6.481v9.827h15.683a28.93,28.93,0,0,1,57.786,0h16.416v-9.827Z" fill="#a793f7"/>
        <path id="Path_2838" data-name="Path 2838" d="M212.607,304.328a18.376,18.376,0,0,0-1.121-2.782l2.484-2.278-3.09-3.371-1.961,1.8a18.708,18.708,0,0,0-2.929-2.723l1.6-3.132-4.074-2.076-1.5,2.936a18.39,18.39,0,0,0-4.279-1.2v-3.314h-4.572v3.174a18.467,18.467,0,0,0-4.295.919l-1.329-2.607-4.074,2.077,1.291,2.533a18.667,18.667,0,0,0-3.254,2.7l-1.9-1.741-3.09,3.371,2.238,2.052a18.483,18.483,0,0,0-1.6,3.671h-3.015V308.9h7.3a13.461,13.461,0,0,1,26.888,0h7.638v-4.573Z" fill="#a793f7"/>
      </g>
      <g id="Group_8027" data-name="Group 8027">
        <rect id="Rectangle_358" data-name="Rectangle 358" width="7.106" height="22.135" transform="translate(547.854 286.777)" fill="#a793f7"/>
        <rect id="Rectangle_359" data-name="Rectangle 359" width="7.217" height="31.286" transform="translate(560.596 277.626)" fill="#a793f7"/>
        <rect id="Rectangle_360" data-name="Rectangle 360" width="7.051" height="38.412" transform="translate(573.338 270.5)" fill="#a793f7"/>
        <rect id="Rectangle_361" data-name="Rectangle 361" width="7.15" height="47.912" transform="translate(586.08 261)" fill="#a793f7"/>
        <path id="Path_2839" data-name="Path 2839" d="M592.922,242.334a73.754,73.754,0,0,0-6.618,3.315c-1.076.613-2.14,1.253-3.183,1.942a35.036,35.036,0,0,0-3.051,2.239,35.15,35.15,0,0,0,3.706-.765c1.21-.312,2.4-.673,3.575-1.061,1.091-.363,2.168-.757,3.237-1.17a128.541,128.541,0,0,1-9.394,9.039c-1.992,1.556-3.849,3.254-5.91,4.716-1.973,1.567-4.045,3.008-6.1,4.471-2.08,1.431-4.157,2.865-6.3,4.213-1.049.7-2.112,1.391-3.2,2.047s-2.139,1.355-3.228,2c-4.333,2.635-8.718,5.2-13.175,7.736a87.982,87.982,0,0,0,14.236-5.827c1.159-.557,2.287-1.172,3.41-1.8s2.247-1.249,3.351-1.91c2.225-1.293,4.351-2.749,6.5-4.164,2.073-1.532,4.176-3.023,6.148-4.693.993-.824,1.99-1.64,2.925-2.535.953-.871,1.9-1.749,2.819-2.654a60.891,60.891,0,0,0,7.979-9.893c-.248.85-.5,1.7-.715,2.56-.288,1.169-.553,2.346-.767,3.542a33.961,33.961,0,0,0-.476,3.648,33.777,33.777,0,0,0,1.965-3.11c.6-1.057,1.148-2.132,1.673-3.215,1.038-2.171,1.958-4.385,2.776-6.636l1.3-3.584Z" fill="#e25f97"/>
      </g>
      <g id="Group_8031" data-name="Group 8031">
        <g id="Group_8029" data-name="Group 8029">
          <path id="Path_2840" data-name="Path 2840" d="M407.882,185.333c-4.615-1.674-7.384-11.16-11.69-31.249-4.238-19.765-23.647-17.115-24.273-17.024-.626-.091-20.036-2.741-24.273,17.024-4.307,20.089-7.076,29.575-11.69,31.249s-9.844,14.23,4.614,22.88c6.639,3.971,18.852,6.344,30.838,6.383v.005c.17,0,.341,0,.511,0s.34,0,.51,0V214.6c11.986-.039,24.2-2.412,30.838-6.383C417.726,199.563,412.5,187.008,407.882,185.333Z" fill="#3f2f7c"/>
          <path id="Path_2841" data-name="Path 2841" d="M390.406,185.255c-8.341-12.428-6.7-26.976-7.1-41.156-5.542-2.589-12.76-1.988-18.711-1.557a85.99,85.99,0,0,1,.615,19.342c-.664,8.576-2.614,18.18-8.353,24.914-3.4,3.99-8.077,5.588-12.632,7.826a17.977,17.977,0,0,0-7.694,7.95c-.327.619-.608,1.246-.864,1.874a24.9,24.9,0,0,0,4.9,3.765c6.639,3.971,18.852,6.344,30.838,6.383v.005c.17,0,.341,0,.511,0s.34,0,.51,0V214.6c11.9-.039,24.023-2.381,30.692-6.3a13.376,13.376,0,0,0-1.317-7.365C399.041,194.968,394.012,190.629,390.406,185.255Z" fill="#3f2f7c" opacity="0.43" style="mix-blend-mode: multiply;isolation: isolate"/>
        </g>
        <path id="Path_2842" data-name="Path 2842" d="M362.892,185.694s.06,11.382-2.136,13.08c0,0,4.081,5.622,12.928,5.181,0,0,6.811-.6,8.714-3.082,0,0-.684-13.734-.576-16.652C381.822,184.221,365.4,180.008,362.892,185.694Z" fill="#e68379"/>
        <path id="Path_2843" data-name="Path 2843" d="M362.585,192.277c3.753,2.769,8.018,4.319,12.962,3a19.254,19.254,0,0,0,6.459-3.2c-.13-3.318-.231-6.6-.184-7.857,0,0-16.426-4.213-18.93,1.473C362.892,185.694,362.909,188.975,362.585,192.277Z" fill="#e68379" opacity="0.47" style="mix-blend-mode: multiply;isolation: isolate"/>
        <path id="Path_2844" data-name="Path 2844" d="M402.509,206.281c-.384-1.537-16.6-6.9-20.017-8.02A18.028,18.028,0,0,1,369.9,201.6c-3.517-.323-7.108-1.695-9.318-4.368l-.166.021s-21.482,6.875-21.912,8.593,12.03,36.09,11.171,45.112-7.3,16.756-6.015,21.053c0,0,10.622,1.6,20.642,2.208l-.03.37c10.311,1.289,33.082-2.148,33.082-2.148,1.289-4.3-5.156-12.03-6.015-21.053S402.938,208,402.509,206.281Z" fill="#74d3c5"/>
        <path id="Path_2845" data-name="Path 2845" d="M397.374,224.056a54.218,54.218,0,0,1-14.61,8.314c-9.128,3.484-21.594,2.893-30.1-2.043a31.733,31.733,0,0,1-9.814-9.308c3.348,10.967,7.325,24.715,6.827,29.944-.859,9.023-7.3,16.756-6.015,21.053,0,0,10.622,1.6,20.642,2.208l-.03.37c10.311,1.289,33.082-2.148,33.082-2.148,1.289-4.3-5.156-12.03-6.015-21.053C390.879,246.57,394.225,234.506,397.374,224.056Z" fill="#74d3c5" style="mix-blend-mode: multiply;isolation: isolate"/>
        <path id="Path_2846" data-name="Path 2846" d="M362.192,196.532l-1.777.726s4.121,9.475,11.867,12.77c0,0,9.7-5.2,11.262-11.659l-1.3-.95S373.519,202.868,362.192,196.532Z" fill="#fff"/>
        <path id="Path_2847" data-name="Path 2847" d="M339.3,205.056s-32.239,39.584-27.863,47.936,27.842,20.285,33.808,20.285l8.353-5.966s-22.274-18.3-21.479-21.876,18.3-23.467,18.3-23.467S345.684,200.872,339.3,205.056Z" fill="#74d3c5"/>
        <path id="Path_2848" data-name="Path 2848" d="M332.118,245.435c.7-3.154,14.362-18.958,17.6-22.676a45.486,45.486,0,0,0-21.257,21.487,28.734,28.734,0,0,0-1.211,21.741c7.311,4.167,14.938,7.29,17.989,7.29l8.353-5.966S331.323,249.015,332.118,245.435Z" fill="#74d3c5" style="mix-blend-mode: multiply;isolation: isolate"/>
        <path id="Path_2849" data-name="Path 2849" d="M351.608,286.005s-51.309-41.763-60.06-27.047,16.706,41.366,54.094,46.537Z" fill="#6455bc"/>
        <path id="Path_2850" data-name="Path 2850" d="M403.157,206.249s32.238,39.584,27.863,47.936-27.842,20.286-33.809,20.286l-8.352-5.967s22.273-18.3,21.478-21.876-18.3-23.467-18.3-23.467S396.772,202.065,403.157,206.249Z" fill="#74d3c5"/>
        <path id="Path_2851" data-name="Path 2851" d="M425.059,257.241c-5.327-9.464-11.964-17.675-20.748-24.146-3.119-2.3-6.158-4.7-9.236-7.052q-.77-.588-1.545-1.174c4.241,4.89,16.154,18.82,16.807,21.759.8,3.58-21.478,21.876-21.478,21.876l8.352,5.966c4.9,0,21.629-8.063,29.859-15.573A3.612,3.612,0,0,1,425.059,257.241Z" fill="#74d3c5" style="mix-blend-mode: multiply;isolation: isolate"/>
        <path id="Path_2852" data-name="Path 2852" d="M392.438,286.005s51.31-41.763,60.06-27.047-16.7,41.366-54.093,46.537Z" fill="#6455bc"/>
        <path id="Path_2853" data-name="Path 2853" d="M391.426,159.223l-.071-.039c-.719-9.875-9.268-17.677-19.734-17.677-10.938,0-19.8,8.515-19.8,19.019a18.283,18.283,0,0,0,.581,4.5c.882,7.907,4.672,24.3,20.916,27.407C373.313,192.434,393,189.348,391.426,159.223Z" fill="#e68379"/>
        <path id="Path_2854" data-name="Path 2854" d="M361.021,151.169s14.584,9.016,24.4,10.076,5.3,7.425,5.833,8.22,5.569-11.4-2.386-23.334-25.191-8.22-32.085,0A20.506,20.506,0,0,0,361.021,151.169Z" fill="#3f2f7c"/>
        <path id="Path_2855" data-name="Path 2855" d="M362.878,150.9A23.479,23.479,0,0,0,352.8,172.912s-9.811-19.092,6.1-29.168C358.9,143.744,367.12,144.54,362.878,150.9Z" fill="#3f2f7c"/>
        <path id="Path_2856" data-name="Path 2856" d="M355.406,171.994c1.041,2.664.7,5.286-.756,5.856s-3.486-1.127-4.527-3.791-.7-5.286.755-5.856S354.364,169.33,355.406,171.994Z" fill="#e68379"/>
        <path id="Path_2857" data-name="Path 2857" d="M395.627,173.487c-.711,2.771-2.516,4.7-4.034,4.313s-2.171-2.95-1.461-5.721,2.516-4.7,4.033-4.313S396.337,170.717,395.627,173.487Z" fill="#e68379"/>
        <path id="Path_2858" data-name="Path 2858" d="M367.336,171.939s-4.3,2.837-8.347-2.026H357.53l1.459.648S363.365,176.4,367.336,171.939Z" fill="#3f2f7c"/>
        <path id="Path_2859" data-name="Path 2859" d="M368.251,168.044s-3.114-3.555-10.241-1.523c0,0,6.6-.372,8.842,1.529C366.852,168.05,368.213,169.2,368.251,168.044Z" fill="#3f2f7c"/>
        <path id="Path_2860" data-name="Path 2860" d="M377.936,172.421s4.295,2.836,8.347-2.027h1.459l-1.459.649S381.907,176.878,377.936,172.421Z" fill="#3f2f7c"/>
        <path id="Path_2861" data-name="Path 2861" d="M377.021,168.525s3.114-3.554,10.241-1.523c0,0-6.6-.372-8.842,1.529C378.42,168.531,377.059,169.685,377.021,168.525Z" fill="#3f2f7c"/>
        <g id="Group_8030" data-name="Group 8030" opacity="0.82">
          <path id="Path_2862" data-name="Path 2862" d="M371.16,177.774s2.159,2.319,3.484.251C374.644,178.025,373.221,180.72,371.16,177.774Z" fill="#3f2f7c"/>
          <path id="Path_2863" data-name="Path 2863" d="M370.106,176.964a1.041,1.041,0,0,0,.4,1.783A2.243,2.243,0,0,1,370.106,176.964Z" fill="#3f2f7c"/>
          <path id="Path_2864" data-name="Path 2864" d="M375.735,177.045a1.041,1.041,0,0,1-.4,1.783A2.243,2.243,0,0,0,375.735,177.045Z" fill="#3f2f7c"/>
        </g>
        <path id="Path_2865" data-name="Path 2865" d="M361.987,151.436s-9.482,14.992-5.024,25.933c0,0-.892,2.026-1.621,1.053s-4.539-10.616-3.809-15.8S357.53,149.086,361.987,151.436Z" fill="#3f2f7c"/>
        <path id="Path_2866" data-name="Path 2866" d="M389.523,162.119s.4,14.932-.82,19.594c0,0,.509,1.176,1.414.365s3.477-16.164,2.653-19.1S390.232,160.918,389.523,162.119Z" fill="#3f2f7c"/>
        <path id="Path_2867" data-name="Path 2867" d="M360.181,197.788s5.554,9.728,12.1,12.24c0,0,8.6-4.676,11.262-11.659,0,0,1.549-.3,1.41.672s-5.289,10.438-12.665,12.943c0,0-6.124-1.253-14.474-13.917C357.815,198.067,359.605,196.8,360.181,197.788Z" fill="#74d3c5" style="mix-blend-mode: multiply;isolation: isolate"/>
        <path id="Path_2868" data-name="Path 2868" d="M369.281,182.6s.284.487,1.841-.162a4.833,4.833,0,0,1,5.239.487,1.293,1.293,0,0,0,1.153-.184,4.011,4.011,0,0,1-3.952,3.475C369.9,186.485,369.281,182.6,369.281,182.6Z" fill="#de312d"/>
        <path id="Path_2869" data-name="Path 2869" d="M371.294,183.338a29.277,29.277,0,0,0,4.211.06s-.12,1.384-2.105,1.324S371.294,183.338,371.294,183.338Z" fill="#fff"/>
        <path id="Path_2870" data-name="Path 2870" d="M382.237,162.283c-3.884,0-7.033,3.689-7.033,8.241,0,.3.016.6.043.891-1.922-1.94-4.284-.589-4.961-.128.02-.252.033-.505.033-.763,0-4.552-3.149-8.241-7.032-8.241s-7.033,3.689-7.033,8.241,3.149,8.242,7.033,8.242c3.428,0,6.28-2.877,6.9-6.682a4.119,4.119,0,0,1,5.125-.154c.57,3.881,3.449,6.836,6.923,6.836,3.884,0,7.032-3.69,7.032-8.242S386.121,162.283,382.237,162.283Zm-18.95,15.908c-3.613,0-6.542-3.433-6.542-7.667s2.929-7.666,6.542-7.666,6.541,3.432,6.541,7.666S366.9,178.191,363.287,178.191Zm18.95,0c-3.613,0-6.542-3.433-6.542-7.667s2.929-7.666,6.542-7.666,6.541,3.432,6.541,7.666S385.85,178.191,382.237,178.191Z" fill="#3f2f7c" opacity="0.49"/>
        <path id="Path_2871" data-name="Path 2871" d="M307.941,270.127s15.966,7.451,19.692,13.838" fill="none" stroke="#3f2f7c" stroke-miterlimit="10" stroke-width="0.816"/>
        <path id="Path_2872" data-name="Path 2872" d="M430.351,270.66s-14.9,7.983-18.627,14.9" fill="none" stroke="#3f2f7c" stroke-miterlimit="10" stroke-width="0.816"/>
      </g>
      <g id="Group_8034" data-name="Group 8034">
        <path id="Path_2873" data-name="Path 2873" d="M324.955,301.655,261.316,122h211.6L418.161,303.108Z" fill="url(#linear-gradient)"/>
        <g id="Group_8033" data-name="Group 8033">
          <g id="Group_8032" data-name="Group 8032">
            <rect id="Rectangle_363" data-name="Rectangle 363" width="93.471" height="58.469" transform="translate(324.292 245.032)" fill="#3f2f7c"/>
            <path id="Path_2874" data-name="Path 2874" d="M409.139,245.032c-1.432,15.6-7.373,30.568-20.24,40.562-9.679,7.518-21.62,10.76-33.76,10.537-10.375-.191-20.563-2.255-30.847-3.406V303.5h93.471V245.032Z" fill="#3f2f7c" opacity="0.36" style="mix-blend-mode: multiply;isolation: isolate"/>
            <path id="Path_2875" data-name="Path 2875" d="M373.638,274.3a3.558,3.558,0,1,1-3.548-3.821A3.693,3.693,0,0,1,373.638,274.3Z" fill="#ddd6fe"/>
          </g>
          <path id="Path_2876" data-name="Path 2876" d="M419.225,309.472H324.163a3.191,3.191,0,0,1-3.182-3.182h0a3.191,3.191,0,0,1,3.182-3.182h95.062a3.191,3.191,0,0,1,3.182,3.182h0A3.191,3.191,0,0,1,419.225,309.472Z" fill="#1e154a"/>
        </g>
      </g>
    </g>
  </g>
</svg>
